<?xml version="1.0" encoding="UTF-8" standalone="no"?>
<svg
   xmlns:dc="http://purl.org/dc/elements/1.1/"
   xmlns:cc="http://creativecommons.org/ns#"
   xmlns:rdf="http://www.w3.org/1999/02/22-rdf-syntax-ns#"
   xmlns:svg="http://www.w3.org/2000/svg"
   xmlns="http://www.w3.org/2000/svg"
   id="svg4769"
   version="1.1"
   viewBox="0 0 512 512"
   height="512"
   width="512">
  <defs
     id="defs4763" />
  <metadata
     id="metadata4766">
    <rdf:RDF>
      <cc:Work
         rdf:about="">
        <dc:format>image/svg+xml</dc:format>
        <dc:type
           rdf:resource="http://purl.org/dc/dcmitype/StillImage" />
        <dc:title></dc:title>
      </cc:Work>
    </rdf:RDF>
  </metadata>
  <g
     transform="translate(0,-161.53331)"
     id="layer1">
    <path
       transform="translate(0,161.53331)"
       id="path4869"
       d="M 502.98828 0 C 456.84974 34.621024 403.16235 89.364514 370.90039 170.66016 C 346.79979 169.78498 322.36178 169.67209 298.29688 171.63086 C 192.19928 180.26671 117.10129 229.68509 67.863281 330.62305 C 63.066915 340.4556 58.776846 350.37239 54.865234 360.19531 C 35.113157 363.06154 16.847781 367.64257 0 373.54297 L 0 422.14844 C 11.415477 417.19443 23.794209 412.99458 37.285156 409.80078 C 30.084657 431.85403 23.982121 451.44407 17.324219 465.59961 C 16.929308 466.43924 16.53524 467.24483 16.142578 468.03516 L 0 438.92969 L 0 512 L 43.025391 512 C 49.571431 503.98002 54.746413 494.76215 59.199219 485.29492 C 70.628636 460.99453 78.893903 432.11446 88.736328 403.04688 C 108.73511 402.30683 130.59164 403.46933 154.53125 406.97461 C 161.49368 409.08888 204.62048 421.1625 255.58594 409.20898 C 311.05728 396.19865 373.84643 350.23331 397.16992 242.85742 C 398.97906 234.52852 401.03567 226.45574 403.30469 218.62305 C 420.28959 219.54332 437.33103 220.5367 454.13867 221.17188 C 473.77256 221.91386 493.19435 222.26905 512 221.16211 L 512 174.35938 C 502.31291 175.08503 492.08799 175.41837 481.41211 175.42773 L 440.86328 133.62891 C 451.51195 116.36808 463.13795 100.98423 475.13672 87.333984 L 512 151.60547 L 512 93.474609 L 495.98828 65.556641 C 501.3409 60.422529 506.69472 55.602757 512 51.085938 L 512 0 L 502.98828 0 z M 426.16992 160.02148 L 439.93945 174.21289 C 433.3654 173.88193 426.69798 173.51123 419.9668 173.12891 C 421.96636 168.661 424.03545 164.29275 426.16992 160.02148 z M 338.51758 216.39062 C 344.25251 216.38563 350.04804 216.46813 355.88086 216.60352 C 354.47734 221.98493 353.16247 227.45857 351.95117 233.03516 C 343.38967 272.45027 330.52787 300.12557 315.43359 319.70508 L 272.22656 221.31445 C 281.69582 219.77538 291.62335 218.60069 302.05078 217.75195 C 313.85535 216.79111 326.05543 216.40168 338.51758 216.39062 z M 243.37891 227.55273 L 293.54688 341.78711 C 287.99117 346.08914 282.29704 349.69892 276.53125 352.70898 L 198.64648 245.79297 C 212.25142 238.05276 227.06573 232.06519 243.37891 227.55273 z M 174.79297 262.16797 L 248.4668 363.30469 C 247.31575 363.60127 246.16561 363.88939 245.01953 364.1582 C 242.29902 364.79627 239.59614 365.3361 236.91797 365.79883 A 14.462105 14.462105 0 0 0 236.07617 365.14258 L 142.53125 295.93555 C 152.53687 282.8102 163.20949 271.63459 174.79297 262.16797 z M 126.2832 319.89062 L 189.64844 366.76953 C 175.25875 365.05602 165.98438 362.18164 165.98438 362.18164 A 23.139368 23.139368 0 0 0 162.29297 361.32031 C 142.77284 358.417 124.24102 356.98056 106.66406 356.81055 C 107.57452 354.83338 108.49993 352.86422 109.45312 350.91016 C 114.90309 339.73772 120.49394 329.41857 126.2832 319.89062 z "
       style="color:#000000;font-style:normal;font-variant:normal;font-weight:normal;font-stretch:normal;font-size:medium;line-height:normal;font-family:sans-serif;font-variant-ligatures:normal;font-variant-position:normal;font-variant-caps:normal;font-variant-numeric:normal;font-variant-alternates:normal;font-feature-settings:normal;text-indent:0;text-align:start;text-decoration:none;text-decoration-line:none;text-decoration-style:solid;text-decoration-color:#000000;letter-spacing:normal;word-spacing:normal;text-transform:none;writing-mode:lr-tb;direction:ltr;text-orientation:mixed;dominant-baseline:auto;baseline-shift:baseline;text-anchor:start;white-space:normal;shape-padding:0;clip-rule:nonzero;display:inline;overflow:visible;visibility:visible;opacity:1;isolation:auto;mix-blend-mode:normal;color-interpolation:sRGB;color-interpolation-filters:linearRGB;solid-color:#000000;solid-opacity:1;vector-effect:none;fill:#492e3d;fill-opacity:1;fill-rule:nonzero;stroke:none;stroke-width:46.27410889;stroke-linecap:round;stroke-linejoin:round;stroke-miterlimit:4;stroke-dasharray:none;stroke-dashoffset:0;stroke-opacity:1;color-rendering:auto;image-rendering:auto;shape-rendering:auto;text-rendering:auto;enable-background:accumulate" />
    <path
       id="path4794"
       d="m 32.06393,420.27764 c -4.616625,0.18814 -8.09786,3.6214 -9.29814,8.0366 -4.893816,9.97971 -7.165742,21.14188 -7.459124,32.13612 -0.130764,3.6202 0.26121,7.45538 -0.05155,11.19557 -0.260595,18.1926 -1.723493,36.39786 -0.917792,54.58913 1.313409,3.40459 1.532258,8.40678 3.148641,12.04803 -1.256053,1.66189 -3.423456,4.75684 -5.376058,8.31158 -1.137204,2.07028 -2.1685475,4.23379 -2.8049075,6.3523 -0.636359,2.11851 -1.053008,4.30825 0.0378,6.48979 0.7963035,1.5926 1.6365175,5.248 1.9524445,8.93376 0.315909,3.68576 0.15806,7.55893 -0.374692,9.68999 -0.842396,3.36978 -1.0793375,9.20914 -1.0793375,15.36168 0,6.15255 0.2588535,12.15451 1.0655925,15.65041 0.780059,3.38028 2.318089,5.6779 3.403023,7.74442 1.084916,2.06653 1.863056,3.90655 1.863056,7.21853 0,3.46726 -0.69933,7.53413 -0.323107,11.73523 0.376205,4.20111 2.185759,8.69515 6.833518,11.79367 3.577662,2.38511 7.249005,6.48192 11.65618,9.62123 1.951212,1.38992 4.174106,2.53713 6.589467,3.19678 a 2.6402254,2.6402254 0 0 0 3.50957,1.12402 c 0.354452,-0.17723 0.69486,-0.37147 1.02777,-0.57061 1.745123,-0.0479 3.557405,-0.36494 5.437955,-1.11714 11.28033,-4.51214 27.503,-11.88043 32.58288,-24.58075 2.22017,-5.55001 4.98716,-12.40305 7.77543,-18.36251 2.78845,-5.95946 5.86466,-11.13288 7.55191,-12.66677 4.728791,-4.29892 5.055261,-10.55092 4.949841,-13.27862 1.39017,-1.21193 2.36395,-2.93382 2.63991,-5.36919 1.27226,-6.78921 -0.29919,-13.46294 4.16279,-18.48282 3.32365,-6.1807 3.65892,-13.72423 -0.63604,-19.53811 -2.50581,-4.20399 0.79707,-8.4294 1.67757,-12.63239 2.9421,-7.69439 -0.0741,-15.48211 -1.97993,-22.96517 -3.00845,-10.73941 -3.82295,-22.36831 -9.61104,-32.10174 -3.440511,-7.50242 -6.369931,-15.69009 -12.762931,-21.22586 -2.1774,-6.04301 -3.22457,-13.80011 -10.07846,-16.51665 -8.95615,-2.17875 -14.25678,-10.1277 -20.95087,-15.69853 -5.806364,-3.11908 -12.742874,-3.50444 -18.9778,-5.75075 -1.39706,-0.26621 -2.821697,-0.41315 -4.245173,-0.36436 -0.317511,-0.0176 -0.63064,-0.0194 -0.938401,-0.007 z m 1.251196,5.11826 c 8.201432,2.17314 18.084683,2.35732 24.030763,9.15033 2.50831,4.85545 5.42594,14.53523 -2.44397,16.03195 -2.631027,2.19483 -8.360886,1.62795 -9.047211,5.61327 -0.06688,2.46048 3.105787,3.31191 4.829544,1.90431 5.574317,-2.81822 14.988067,-4.47277 14.457637,-12.51553 -1.33217,-5.36129 0.71441,-3.40508 3.93924,-1.36121 5.89304,3.85037 5.2184,12.6618 0.71155,17.52036 -0.9257,4.6929 -6.57303,3.32288 -8.4766,6.56884 -0.89055,2.49342 2.31103,4.34063 4.38266,3.0249 5.60926,-4.72653 2.98843,5.71245 9.0197,6.31104 4.7866,1.64953 6.20419,5.33833 0.25093,6.40042 -7.06777,3.40547 -12.41693,9.72329 -17.02536,15.93572 -2.49118,0.85606 -5.778186,-6.70546 -10.006234,-7.05008 -0.144667,-7.30694 -4.922838,-14.21561 -10.748701,-18.33846 -4.736073,-3.94144 -15.044719,4.59371 -16.911947,-0.26811 0.767423,-5.82708 -1.582768,-12.92484 3.873931,-16.98756 2.002672,-3.63538 7.036826,-2.38276 9.153772,-5.36576 1.227049,-3.09037 -3.127557,-4.67593 -5.36233,-3.04552 -3.562738,0.60989 -8.280595,6.96718 -6.015427,-0.0722 1.365591,-7.75596 3.842814,-15.36452 7.634432,-22.28112 1.129689,-0.68775 2.418987,-1.15822 3.753621,-1.17559 z m 44.500403,23.26766 c 3.28479,6.83403 4.74482,14.438 10.80026,19.69966 3.90407,6.42516 6.41375,13.61675 9.94437,20.18778 3.407951,11.85825 5.639561,24.04171 8.937161,35.91723 0.31996,4.35449 -1.03432,16.32883 -5.02534,7.25976 -6.557541,-5.65444 -5.656271,-14.96286 -6.276831,-22.7933 -0.5616,-5.74228 -5.66877,-10.6387 -10.96867,-12.28179 -2.58025,-0.0558 -3.43352,3.87293 -1.06212,4.89141 8.79355,3.28586 6.76082,13.35111 7.89229,20.73431 0.0493,8.09526 7.40953,12.6937 11.257461,19.02593 -0.82981,6.66302 6.51425,12.45997 4.12478,19.29405 -0.79233,6.39209 -8.772781,7.12975 -13.862881,6.36259 -6.91289,-0.63006 -13.66612,-3.34642 -18.15289,-8.83408 -4.47958,-4.39381 -7.52743,-9.99199 -11.12683,-15.00418 -2.12425,-1.64521 -5.19508,1.26112 -3.66768,3.47174 6.38035,10.28153 14.02008,22.13357 26.8425,24.49139 4.60912,1.74144 11.46814,0.77544 14.986971,1.08621 -1.27174,5.6649 1.71629,17.92969 -7.854271,15.98728 -9.84917,-0.78568 -19.82346,-3.41385 -27.46136,-9.99936 -6.69096,-5.61646 -14.251864,-10.76317 -17.956911,-19.00531 -4.167242,-7.07077 -7.043972,-14.87261 -11.566792,-21.72427 -4.130477,-2.23465 -10.052082,2.51912 -15.024814,-0.28874 -1.854081,-6.04358 -3.6482,-12.27279 -3.368634,-18.67875 0.03448,-12.33404 0.566543,-24.66018 0.852463,-36.98971 5.572063,0.36547 12.235976,-5.31265 16.544136,-0.80778 6.153512,5.25318 8.666621,15.00451 1.154962,20.38713 -1.524919,1.70778 -5.729173,3.69728 -3.647074,6.55853 2.540968,2.75751 5.596086,-1.29499 7.318206,-2.92865 3.238415,-2.69236 4.64079,-10.28017 8.847824,-3.97705 3.202953,1.77117 4.086424,7.34216 8.060674,7.53475 3.12103,-0.94762 2.67963,-5.38155 5.17326,-7.23227 4.49619,-5.33939 9.31565,-11.05635 16.11446,-13.38173 9.80438,-3.51462 3.11413,-13.64308 -4.13861,-15.57136 -3.14462,-3.44697 1.34675,-8.32173 1.63275,-12.23365 2.09613,-3.34495 2.12577,-7.4297 0.67718,-11.15777 z m -6.59635,63.32352 c -1.80493,-0.10595 -3.12696,1.91707 -2.48523,3.55082 -3.04382,5.31821 -8.33619,13.24407 -14.93888,12.8902 -4.432357,-1.81578 -5.296207,-7.64186 -9.246554,-9.6625 -2.862246,-0.53942 -4.011065,3.40095 -1.918072,5.07703 3.321555,4.94835 8.542104,12.00591 15.413246,9.73811 6.08905,-1.93497 9.20784,-8.97632 14.2789,-11.29181 5.2623,1.2002 5.33328,7.89992 6.95726,12.06178 1.7264,2.43051 5.65853,0.0333 4.50647,-2.66397 -0.47483,-6.4153 -5.37945,-13.04124 -10.00972,-15.03168 0.58091,-1.87108 -0.26927,-4.64491 -2.55742,-4.66798 z m -50.072394,30.27993 c 0.917933,0.41157 1.987185,0.66229 3.293026,0.6531 5.546403,0.73868 12.017074,-3.04322 13.09986,4.91546 1.162143,2.20035 2.270642,4.47495 3.396142,6.74415 a 2.6401761,2.6401761 0 0 0 -0.642784,2.6846 c 0,0 1.066807,3.42178 1.811508,7.51757 0.744684,4.09579 0.84347,8.95663 0.08937,10.59059 -0.880059,1.90677 -4.847794,6.16821 -8.390662,10.33966 -1.771433,2.08572 -3.455029,4.22424 -4.657667,6.4451 -1.202621,2.22085 -2.049452,4.69276 -1.313075,7.27007 1.137486,3.98123 3.996458,7.01143 6.194167,9.59374 1.098855,1.29114 2.048607,2.46388 2.57805,3.348 0.529373,0.88415 0.52573,1.29838 0.522474,1.3131 -0.790812,3.55863 -1.430973,7.85868 -1.643064,9.30843 -0.498433,-0.11316 -0.994208,-0.20806 -1.4884,-0.3403 -3.734279,-0.99931 -7.050079,-2.38555 -7.050079,-2.38555 a 2.6407115,2.6407115 0 1 0 -2.041796,4.87078 c 0,0 3.572488,1.50401 7.727234,2.61585 2.077382,0.55592 4.309217,1.02732 6.458844,1.14809 2.149646,0.12073 4.343114,0.0246 6.23542,-1.44715 1.03166,-0.80239 1.648397,-1.72214 2.437114,-2.92177 0.788718,-1.19963 1.632962,-2.652 2.519603,-4.28642 1.773299,-3.26883 3.715989,-7.25931 5.534189,-11.14744 3.63637,-7.77625 6.76134,-15.14169 6.76134,-15.14169 a 2.6401761,2.6401761 0 0 0 -2.45086,-3.7055 2.6401761,2.6401761 0 0 0 -2.4096,1.64308 c 0,0 -3.09632,7.29791 -6.682289,14.96636 -1.792976,3.83425 -3.711594,7.76274 -5.396685,10.86902 -0.842554,1.55313 -1.628368,2.90138 -2.285865,3.90143 -0.657496,1.00005 -1.300033,1.67798 -1.268389,1.65338 -0.07163,0.0558 -0.57888,0.21901 -1.350896,0.3025 0.237011,-1.58909 0.852005,-5.62829 1.546812,-8.75502 0.4412,-1.98536 -0.285145,-3.73791 -1.144648,-5.17326 -0.859485,-1.43536 -1.963355,-2.73611 -3.086761,-4.05612 -2.24683,-2.64002 -4.498587,-5.38301 -5.138888,-7.62412 -0.152587,-0.53386 -7.75e-4,-1.67691 0.87997,-3.30334 0.880745,-1.62645 2.362422,-3.57115 4.035476,-5.54105 3.346141,-3.93981 7.37741,-7.67852 9.164085,-11.54962 1.498309,-3.24637 1.330217,-7.09279 0.800897,-10.75558 2.416716,3.52984 5.245188,6.73389 8.820331,9.30155 8.65202,8.19598 19.10506,15.14611 31.25277,16.35509 3.06811,0.70276 6.97148,1.22029 10.41516,0.71842 -0.26083,2.27237 -0.98487,5.25336 -3.01795,7.10163 -0.61193,0.55633 -1.20063,1.22362 -1.78053,1.94213 -0.52605,-0.0389 -2.70222,-0.20202 -5.65452,-0.40218 -3.28793,-0.22292 -6.65945,-0.4503 -8.12256,-0.4503 a 2.6401761,2.6401761 0 1 0 0,5.27982 c 0.75913,0 4.50077,0.21843 7.76845,0.43999 1.41588,0.0959 1.62074,0.11439 2.71208,0.1925 -1.23601,2.21549 -2.45406,4.66483 -3.70205,7.33193 -2.87838,6.15186 -5.67111,13.07623 -7.89564,18.63752 -3.45228,8.63072 -15.98245,15.76858 -26.450686,20.29432 1.428562,-2.68424 2.383486,-5.58056 3.024896,-8.25317 0.66109,-2.7545 0.99349,-5.29464 1.17904,-7.27694 1.34419,-0.69739 2.66638,-1.42502 3.88768,-2.19306 2.1661,-1.36219 4.03676,-2.69542 5.25919,-4.6164 3.37797,-5.30821 7.31133,-14.60202 7.31133,-14.60202 a 2.6401761,2.6401761 0 0 0 -2.43712,-3.71237 2.6401761,2.6401761 0 0 0 -2.41647,1.63275 c 0,0 -4.06821,9.37606 -6.91259,13.8458 -0.33314,0.52353 -1.74049,1.80411 -3.61613,2.98364 -0.50283,0.31623 -1.0962,0.62936 -1.65338,0.94529 a 2.6401761,2.6401761 0 0 0 -1.87682,-0.74247 2.6401761,2.6401761 0 0 0 -2.598657,2.67772 c 0,0 -0.0076,0.26469 -0.01038,0.40218 -0.102323,0.0486 -0.203871,0.10331 -0.30593,0.15118 -4.489963,2.10974 -8.6244,3.63333 -8.6244,3.63333 a 2.6410503,2.6410503 0 1 0 1.825253,4.95669 c 0,0 2.895526,-1.08176 6.51386,-2.67428 -0.169588,1.06258 -0.37976,2.19039 -0.659978,3.35834 -1.078017,4.49162 -3.104519,9.10432 -6.314494,11.63553 -2.186111,-0.26136 -4.157861,-1.30452 -6.307595,-2.83582 -3.704096,-2.63854 -7.367748,-6.76575 -11.790234,-9.71407 -3.352372,-2.23492 -4.212508,-4.62812 -4.502969,-7.8716 -0.290461,-3.24347 0.343734,-7.17588 0.343734,-11.26432 0,-4.24371 -1.219586,-7.29481 -2.468036,-9.67281 -1.248467,-2.37801 -2.378807,-4.08187 -2.932098,-6.47947 -0.526609,-2.28199 -0.931537,-8.50229 -0.931537,-14.46107 0,-5.95879 0.430306,-12.11933 0.921224,-14.08298 0.80058,-3.20237 0.862934,-7.32683 0.512178,-11.41899 -0.350756,-4.09215 -1.066155,-7.99304 -2.492112,-10.84496 -0.02041,-0.0407 -0.161739,-1.07463 0.299049,-2.60897 0.460894,-1.53432 1.349171,-3.45371 2.378684,-5.32794 1.57015,-2.85851 3.254818,-5.28841 4.406718,-6.87134 z"
       style="color:#000000;font-style:normal;font-variant:normal;font-weight:normal;font-stretch:normal;font-size:medium;line-height:normal;font-family:sans-serif;font-variant-ligatures:normal;font-variant-position:normal;font-variant-caps:normal;font-variant-numeric:normal;font-variant-alternates:normal;font-feature-settings:normal;text-indent:0;text-align:start;text-decoration:none;text-decoration-line:none;text-decoration-style:solid;text-decoration-color:#000000;letter-spacing:normal;word-spacing:normal;text-transform:none;writing-mode:lr-tb;direction:ltr;text-orientation:mixed;dominant-baseline:auto;baseline-shift:baseline;text-anchor:start;white-space:normal;shape-padding:0;clip-rule:nonzero;display:inline;overflow:visible;visibility:visible;opacity:1;isolation:auto;mix-blend-mode:normal;color-interpolation:sRGB;color-interpolation-filters:linearRGB;solid-color:#000000;solid-opacity:1;vector-effect:none;fill:#ffffff;fill-opacity:1;fill-rule:nonzero;stroke:none;stroke-width:5.1636138;stroke-linecap:round;stroke-linejoin:round;stroke-miterlimit:4;stroke-dasharray:none;stroke-dashoffset:0;stroke-opacity:1;color-rendering:auto;image-rendering:auto;shape-rendering:auto;text-rendering:auto;enable-background:accumulate" />
    <path
       id="rect4827"
       d="m 445.74747,435.88599 14.68894,12.22233 c 2.3818,1.98183 2.70719,5.49759 0.72187,7.87638 l -45.11514,54.05551 c -1.9818,2.38174 -5.49457,2.70385 -7.87636,0.72202 l -14.68894,-12.22232 c -2.38181,-1.98183 -2.70721,-5.49759 -0.72187,-7.87638 L 437.87111,436.608 c 1.98177,-2.38172 5.49457,-2.70383 7.87636,-0.72201 z"
       style="opacity:1;fill:#ffffff;fill-opacity:1;fill-rule:nonzero;stroke:none;stroke-width:5.53662109;stroke-linecap:round;stroke-linejoin:round;stroke-miterlimit:4;stroke-dasharray:none;stroke-dashoffset:0;stroke-opacity:1;paint-order:stroke fill markers" />
    <path
       id="circle4843"
       d="m 474.93441,495.83998 -17.18309,15.82406 a 47.53907,47.53907 0 0 1 14.64897,34.25063 47.53907,47.53907 0 0 1 -47.54056,47.54069 47.53907,47.53907 0 0 1 -40.56959,-22.83856 h -25.14179 a 70.842534,70.842534 0 0 0 66.64485,47.07208 70.842534,70.842534 0 0 0 70.8407,-70.84062 70.842534,70.842534 0 0 0 -21.69949,-51.00828 z"
       style="opacity:1;fill:#ffffff;fill-opacity:1;fill-rule:nonzero;stroke:none;stroke-width:8.95283413;stroke-linecap:round;stroke-linejoin:round;stroke-miterlimit:4;stroke-dasharray:none;stroke-dashoffset:0;stroke-opacity:1;paint-order:stroke fill markers" />
    <rect
       transform="rotate(39.248415)"
       ry="0"
       y="132.39531"
       x="606.46399"
       height="12.816906"
       width="50.335484"
       id="rect4830"
       style="opacity:1;fill:#ffffff;fill-opacity:1;fill-rule:nonzero;stroke:none;stroke-width:5.53662109;stroke-linecap:round;stroke-linejoin:round;stroke-miterlimit:4;stroke-dasharray:none;stroke-dashoffset:0;stroke-opacity:1;paint-order:stroke fill markers" />
    <rect
       style="opacity:1;fill:#ffffff;fill-opacity:1;fill-rule:nonzero;stroke:none;stroke-width:5.53662109;stroke-linecap:round;stroke-linejoin:round;stroke-miterlimit:4;stroke-dasharray:none;stroke-dashoffset:0;stroke-opacity:1;paint-order:stroke fill markers"
       id="rect4832"
       width="18.605021"
       height="29.411821"
       x="620.88611"
       y="27.026834"
       ry="0"
       transform="rotate(39.248415)" />
    <path
       id="path4834"
       d="m 455.14892,476.95201 a 18.784965,18.784965 0 0 0 -18.78705,18.78344 18.784965,18.784965 0 0 0 18.78705,18.787 18.784965,18.784965 0 0 0 18.78336,-18.787 18.784965,18.784965 0 0 0 -18.78336,-18.78344 z m 0,9.97026 a 8.815751,8.815751 0 0 1 8.8132,8.81318 8.815751,8.815751 0 0 1 -8.8132,8.81677 8.815751,8.815751 0 0 1 -8.81688,-8.81677 8.815751,8.815751 0 0 1 8.81688,-8.81318 z"
       style="opacity:1;fill:#ffffff;fill-opacity:1;fill-rule:nonzero;stroke:none;stroke-width:5.53662109;stroke-linecap:round;stroke-linejoin:round;stroke-miterlimit:4;stroke-dasharray:none;stroke-dashoffset:0;stroke-opacity:1;paint-order:stroke fill markers" />
    <rect
       y="563.95557"
       x="332.55066"
       height="12.85287"
       width="86.674484"
       id="rect4839"
       style="opacity:1;fill:#ffffff;fill-opacity:1;fill-rule:nonzero;stroke:none;stroke-width:5.53662109;stroke-linecap:round;stroke-linejoin:round;stroke-miterlimit:4;stroke-dasharray:none;stroke-dashoffset:0;stroke-opacity:1;paint-order:stroke fill markers" />
    <path
       id="rect4851"
       d="m 354.5139,617.76498 c -5.05262,0 -9.15358,4.10309 -9.15358,9.1557 v 16.48533 c 0,0.28721 0.0164,0.57013 0.0424,0.8506 v 10.84423 H 498.978 v -16.1489 h -0.0783 v -12.03126 c 0,-5.05261 -4.10097,-9.1557 -9.15358,-9.1557 z m 0,2.15192 h 135.23219 c 3.89776,0 7.00166,3.10602 7.00166,7.00378 v 12.03126 H 347.51223 v -12.03126 c 0,-3.89776 3.1039,-7.00378 7.00167,-7.00378 z"
       style="color:#000000;font-style:normal;font-variant:normal;font-weight:normal;font-stretch:normal;font-size:medium;line-height:normal;font-family:sans-serif;font-variant-ligatures:normal;font-variant-position:normal;font-variant-caps:normal;font-variant-numeric:normal;font-variant-alternates:normal;font-feature-settings:normal;text-indent:0;text-align:start;text-decoration:none;text-decoration-line:none;text-decoration-style:solid;text-decoration-color:#000000;letter-spacing:normal;word-spacing:normal;text-transform:none;writing-mode:lr-tb;direction:ltr;text-orientation:mixed;dominant-baseline:auto;baseline-shift:baseline;text-anchor:start;white-space:normal;shape-padding:0;clip-rule:nonzero;display:inline;overflow:visible;visibility:visible;opacity:1;isolation:auto;mix-blend-mode:normal;color-interpolation:sRGB;color-interpolation-filters:linearRGB;solid-color:#000000;solid-opacity:1;vector-effect:none;fill:#ffffff;fill-opacity:1;fill-rule:nonzero;stroke:none;stroke-width:2.15173507;stroke-linecap:round;stroke-linejoin:round;stroke-miterlimit:4;stroke-dasharray:none;stroke-dashoffset:0;stroke-opacity:1;paint-order:stroke fill markers;color-rendering:auto;image-rendering:auto;shape-rendering:auto;text-rendering:auto;enable-background:accumulate" />
    <path
       id="path4975"
       d="m 207.64098,665.11868 c 0,0 -48.78203,-155.51994 -24.42841,-206.59826 l 3.71148,7.74546 c 0,0 -8.05713,49.47273 14.11681,139.31197 0,0 43.43428,-91.7276 83.8396,-118.70827 l 4.10047,4.36727 c 0,0 -48.41759,39.15988 -83.04523,133.84902 0,0 7.79511,26.0978 13.42902,35.59907 z"
       style="fill:#441700;fill-opacity:1;stroke:none;stroke-width:1;stroke-linecap:butt;stroke-linejoin:miter;stroke-opacity:1;stroke-miterlimit:4;stroke-dasharray:none" />
    <g
       transform="matrix(2.3958624,-0.71561688,0.71561688,2.3958624,-2284.7174,-1003.2991)"
       id="g4961">
      <path
         style="fill:#45a512;fill-opacity:1;stroke:none;stroke-width:1px;stroke-linecap:butt;stroke-linejoin:miter;stroke-opacity:1"
         d="M 777.85714,844.60474 795,811.39045 c 0,0 -18.39286,11.42857 -20.89286,20 -2.5,8.57143 3.75,13.21429 3.75,13.21429 z"
         id="path4955" />
      <path
         id="path4957"
         d="m 777.82557,844.57722 17.03132,-33.27162 c 0,0 1.41172,21.60825 -4.10325,28.62996 -5.51497,7.02172 -12.92807,4.64166 -12.92807,4.64166 z"
         style="fill:#398d08;fill-opacity:1;stroke:none;stroke-width:1px;stroke-linecap:butt;stroke-linejoin:miter;stroke-opacity:1" />
    </g>
    <g
       transform="matrix(1.7114253,-0.96278064,0.96278064,1.7114253,-1910.0175,-153.31995)"
       id="g4967">
      <path
         id="path4963"
         d="M 777.85714,844.60474 795,811.39045 c 0,0 -18.39286,11.42857 -20.89286,20 -2.5,8.57143 3.75,13.21429 3.75,13.21429 z"
         style="fill:#45a512;fill-opacity:1;stroke:none;stroke-width:1px;stroke-linecap:butt;stroke-linejoin:miter;stroke-opacity:1" />
      <path
         style="fill:#398d08;fill-opacity:1;stroke:none;stroke-width:1px;stroke-linecap:butt;stroke-linejoin:miter;stroke-opacity:1"
         d="m 777.82557,844.57722 17.03132,-33.27162 c 0,0 1.41172,21.60825 -4.10325,28.62996 -5.51497,7.02172 -12.92807,4.64166 -12.92807,4.64166 z"
         id="path4965" />
    </g>
    <g
       id="g4973"
       transform="matrix(0.96278064,1.7114253,-1.7114253,0.96278064,955.45037,-1623.6195)">
      <path
         style="fill:#45a512;fill-opacity:1;stroke:none;stroke-width:1px;stroke-linecap:butt;stroke-linejoin:miter;stroke-opacity:1"
         d="M 777.85714,844.60474 795,811.39045 c 0,0 -18.39286,11.42857 -20.89286,20 -2.5,8.57143 3.75,13.21429 3.75,13.21429 z"
         id="path4969" />
      <path
         id="path4971"
         d="m 777.82557,844.57722 17.03132,-33.27162 c 0,0 1.41172,21.60825 -4.10325,28.62996 -5.51497,7.02172 -12.92807,4.64166 -12.92807,4.64166 z"
         style="fill:#398d08;fill-opacity:1;stroke:none;stroke-width:1px;stroke-linecap:butt;stroke-linejoin:miter;stroke-opacity:1" />
    </g>
    <g
       transform="matrix(0.38645419,0.22252672,-0.22252672,0.38645419,91.939444,215.78216)"
       id="g5008">
      <path
         style="fill:#000000;fill-opacity:1;stroke:none;stroke-width:1px;stroke-linecap:butt;stroke-linejoin:miter;stroke-opacity:1"
         d="m 23.304278,304.69936 v 72.22591 l -3.53553,-72.98352 z"
         id="path4996" />
      <rect
         style="opacity:1;fill:#8c98a1;fill-opacity:1;fill-rule:nonzero;stroke:none;stroke-width:1;stroke-linecap:round;stroke-linejoin:round;stroke-miterlimit:4;stroke-dasharray:none;stroke-dashoffset:0;stroke-opacity:1;paint-order:stroke fill markers"
         id="rect4994"
         width="21.785715"
         height="31.071428"
         x="11.653844"
         y="275.22498"
         ry="6.2665796" />
      <rect
         style="opacity:1;fill:#e9eae9;fill-opacity:1;fill-rule:nonzero;stroke:none;stroke-width:1;stroke-linecap:round;stroke-linejoin:round;stroke-miterlimit:4;stroke-dasharray:none;stroke-dashoffset:0;stroke-opacity:1;paint-order:stroke fill markers"
         id="rect4998"
         width="45.357143"
         height="90.714287"
         x="-0.13186158"
         y="-72.895256"
         ry="4.2931499" />
      <rect
         style="opacity:1;fill:#e9eae9;fill-opacity:1;fill-rule:nonzero;stroke:none;stroke-width:1.54946566;stroke-linecap:round;stroke-linejoin:round;stroke-miterlimit:4;stroke-dasharray:none;stroke-dashoffset:0;stroke-opacity:1;paint-order:stroke fill markers"
         id="rect4992"
         width="67.680222"
         height="287.3884"
         x="-11.293422"
         y="-2.387002"
         ry="10.307182" />
      <rect
         style="opacity:1;fill:#8c98a1;fill-opacity:1;fill-rule:nonzero;stroke:none;stroke-width:1;stroke-linecap:round;stroke-linejoin:round;stroke-miterlimit:4;stroke-dasharray:none;stroke-dashoffset:0;stroke-opacity:1;paint-order:stroke fill markers"
         id="rect4990"
         width="111.11678"
         height="8.586297"
         x="-32.50668"
         y="-2.8561792"
         ry="4.2931485" />
      <rect
         ry="0.65918446"
         y="-72.895256"
         x="-20.846155"
         height="13.928573"
         width="86.785721"
         id="rect5000"
         style="opacity:1;fill:#8c98a1;fill-opacity:1;fill-rule:nonzero;stroke:none;stroke-width:0.54202175;stroke-linecap:round;stroke-linejoin:round;stroke-miterlimit:4;stroke-dasharray:none;stroke-dashoffset:0;stroke-opacity:1;paint-order:stroke fill markers" />
      <path
         id="rect5010"
         transform="matrix(1.9432993,-1.1189839,1.1189839,1.9432993,-239.36945,-2.5429941)"
         d="M 49.996094 117 L 26.449219 157.89258 C 25.178551 160.0993 25.931949 162.89925 28.138672 164.16992 L 46.326172 174.64258 C 48.532894 175.91325 51.332848 175.15985 52.603516 172.95312 L 84.822266 117 L 49.996094 117 z "
         style="opacity:1;fill:#ff7501;fill-opacity:1;fill-rule:nonzero;stroke:none;stroke-width:0.69097304;stroke-linecap:round;stroke-linejoin:round;stroke-miterlimit:4;stroke-dasharray:none;stroke-dashoffset:0;stroke-opacity:1;paint-order:stroke fill markers" />
    </g>
    <g
       transform="matrix(1.0526611,0,0,1.0526611,-447.70036,-106.97556)"
       id="g5193">
      <path
         style="fill:#969696;fill-opacity:1;stroke:none;stroke-width:1px;stroke-linecap:butt;stroke-linejoin:miter;stroke-opacity:1"
         d="m 656.93455,418.48811 c 0,0 5,9.46429 13.92858,10 0,0 -2.85715,-4.64285 -0.89286,-6.60714 0,0 7.5,4.64286 13.39286,5.35714 0,0 -4.82143,-4.46428 -2.5,-7.67857 0,0 7.85714,6.42857 13.21428,4.82143 0,0 -6.25,-10.71429 -3.03571,-12.85714 0.89285,0.17857 6.78571,6.25 20.35714,7.85714 0,0 -12.67857,-8.21429 -6.25,-11.07143 0,0 15.71429,7.32143 24.28571,7.85714 0,0 -10.53571,-12.67857 -5.71428,-14.10714 0,0 11.42857,6.78572 21.60714,7.32143 0,0 -11.25,-9.10714 -6.25,-18.92857 0,0 8.57143,9.64286 19.28572,11.07143 0,0 -9.46429,-10 -6.78572,-17.85715 0,0 14.28572,8.21429 19.82143,9.28572 0,0 -8.57143,-6.07143 -7.5,-17.67857 0,0 9.64286,8.39285 12.32143,8.92857 v -14.82143 l -23.21429,4.28571 -46.60714,20.71429 -22.02049,10.7043 -28.03173,6.31345 z"
         id="path5155" />
      <path
         style="fill:#969696;fill-opacity:1;stroke:none;stroke-width:1px;stroke-linecap:butt;stroke-linejoin:miter;stroke-opacity:1"
         d="m 690.18673,459.88605 c 0,0 -6.06091,-9.21765 -3.78807,-10.2278 0,0 3.03046,2.77792 9.59645,3.53554 0,0 -5.80838,-11.99557 -4.41942,-15.27856 0,0 4.67196,8.33376 15.78363,9.72272 0,0 1.13643,-4.04061 -1.26269,-6.43973 0,0 7.70242,3.53554 15.27856,3.53554 0,0 -4.79823,-8.20749 -4.92449,-11.49049 0,0 2.0203,5.68211 17.42513,6.43973 0,0 -2.39911,-10.60661 -6.18719,-12.75318 0,0 8.96511,4.29315 20.8344,4.04061 0,0 -3.78807,-9.21764 -7.57614,-10.98541 0,0 10.48033,5.68211 19.44543,5.80838 0,0 -2.0203,-12.12183 -4.16688,-13.00572 0,0 5.17704,4.29315 16.92006,3.66181 l 6.18718,-0.75762 -25.00127,18.81409 -54.54824,24.74874 z"
         id="path5157" />
      <path
         style="fill:#f5f5f5;fill-opacity:1;stroke:none;stroke-width:1px;stroke-linecap:butt;stroke-linejoin:miter;stroke-opacity:1"
         d="m 818.95117,105.10938 c -2.21069,-0.0503 -4.19937,0.49448 -4.76758,1.82031 -1.51522,3.53553 -0.50514,5.05081 -17.67773,15.15234 -17.1726,10.10152 -20.20314,10.10075 -22.72852,2.01953 -2.52538,-8.08122 -8.08088,-4.54569 -13.63672,-2.52539 -5.55583,2.02031 -6.56722,8.08049 -17.17382,12.1211 -10.6066,4.04061 -28.78871,17.17309 -44.95118,31.82031 -16.16244,14.64721 -49.49807,26.26498 -59.5996,66.16601 -10.10152,39.90102 32.32617,21.21289 32.32617,21.21289 24.24366,3.03046 71.72079,-27.27504 96.97461,-38.38671 25.25381,-11.11168 48.99218,7.07226 48.99218,7.07226 -31.81981,14.64721 -20.70828,13.63562 -42.93164,34.34375 -22.22335,20.70813 -87.3789,41.41602 -87.3789,41.41602 0,0 -1.01086,11.61682 19.69726,17.67773 20.70813,6.06092 54.54931,-14.6473 78.79297,-25.25391 24.24366,-10.60659 32.32463,-7.57501 36.36524,-13.13085 4.04061,-5.55584 30.80979,-17.67738 35.35547,-26.26368 4.54569,-8.5863 15.65786,-21.2129 21.71874,-26.26367 6.06093,-5.05076 6.06055,-15.6582 6.06055,-15.6582 0,0 4e-4,-1.01017 1.51563,-5.05078 1.51522,-4.04061 12.12227,-10.60744 14.14258,-15.65821 2.0203,-5.05076 0.50388,-11.61639 -7.07227,-11.11132 -7.57614,0.50508 -5.55588,-1.00979 -10.10156,-6.06055 -4.54569,-5.05076 -3.02933,2.52502 -10.60547,1.00976 -7.57615,-1.51521 -11.61834,-13.63633 -6.0625,-14.64648 5.55584,-1.01015 14.14337,-7.07229 12.12304,-12.12305 -2.0203,-5.05076 -13.63757,-7.06955 -34.3457,-14.14062 -20.70812,-7.07106 -18.68789,-17.17228 -17.67773,-21.21289 0.63134,-2.52538 -3.66902,-4.26188 -7.35352,-4.3457 z m -1.23242,21.51757 c 5.3033,-0.25253 15.4043,4.04102 15.4043,4.04102 0,0 11.11288,6.81761 9.59765,16.41406 -1.51522,9.59645 -4.04178,11.86934 0.50391,15.15235 4.54569,3.283 9.59745,7.57579 8.83984,13.63671 -0.75762,6.06092 -0.50648,17.67813 -10.35547,19.19336 -9.84899,1.51523 -22.22226,9.59581 -23.23242,-14.90039 -1.01015,-24.4962 -4.04044,-29.04182 -6.81836,-37.12304 -2.77792,-8.08122 0.75725,-16.16153 6.06055,-16.41407 z m -29.70508,11.12696 c 1.45299,-0.028 2.84403,0.26088 4.09961,0.98632 8.03571,4.64285 10.17802,8.39285 9.28516,18.75 -0.89286,10.35714 -0.17774,16.25 -0.17774,16.25 l -14.46484,4.28516 c 0,0 -15.53571,-4.10686 -16.25,-13.39258 -0.71428,-9.28571 0,-17.32031 0,-17.32031 0,0 9.66166,-9.40763 17.50781,-9.55859 z m -36.85547,5.57031 c 1.23113,0.0385 2.25703,0.25501 2.91992,0.72851 3.53553,2.52539 1.2629,4.79709 0.75782,10.60547 -0.50507,5.80837 1.76816,19.69866 1.51562,25.00196 -0.25254,5.3033 2.27343,6.06154 -2.77734,9.84961 -5.05076,3.78807 -7.32444,12.37325 -15.6582,13.13085 -8.33376,0.75762 -12.6264,8.33396 -20.45508,0.75782 -7.82868,-7.57615 -11.11192,-10.35391 -10.85938,-11.86914 0.25254,-1.51522 4.04131,-34.85102 30.05274,-45.20508 0,0 9.16903,-3.16671 14.5039,-3 z m -70.61328,45.16992 c 0.35661,-0.007 0.55078,0.004 0.55078,0.004 0,0 3.28262,2.02111 3.53516,8.08203 0.25254,6.06091 -2.77735,10.10119 -5.30274,16.16211 -2.52538,6.06091 -14.39476,13.63672 -25.2539,13.63672 -10.85914,0 -4.04118,-9.84947 5.30273,-24.24414 8.17592,-12.59535 18.67169,-13.58884 21.16797,-13.64063 z"
         transform="translate(0,161.53331)"
         id="path5121" />
      <path
         style="fill:#874712;fill-opacity:1;stroke:none;stroke-width:1px;stroke-linecap:butt;stroke-linejoin:miter;stroke-opacity:1"
         d="m 816.96087,381.85176 c 0,0 1.01016,-2.77792 9.34392,-5.05076 8.33375,-2.27284 13.38452,-4.04061 15.15228,-7.32361 0,0 -9.84898,6.31346 -16.92005,6.06092 -7.07107,-0.25254 -4.79823,0.50507 -8.33376,2.52538 -3.53553,2.02031 -5.3033,1.51523 -5.3033,1.51523 z"
         id="path5123" />
      <path
         style="fill:#874712;fill-opacity:1;stroke:none;stroke-width:1px;stroke-linecap:butt;stroke-linejoin:miter;stroke-opacity:1"
         d="m 872.01419,342.20327 c 0,0 -7.32361,4.29315 -12.37437,12.62691 -5.05076,8.33376 -8.33376,8.08122 -8.33376,8.08122 0,0 6.31345,-2.27284 9.09137,-2.77792 2.77792,-0.50507 10.35407,-8.58629 13.13199,-8.58629 2.77792,0 -1.51523,-9.34392 -1.51523,-9.34392 z"
         id="path5125" />
      <path
         style="fill:#874712;fill-opacity:1;stroke:none;stroke-width:1px;stroke-linecap:butt;stroke-linejoin:miter;stroke-opacity:1"
         d="m 852.06368,304.07002 c 0,0 4.79822,-1.51523 6.81853,2.27284 2.0203,3.78807 6.56599,0.25254 8.08122,2.52538 1.51522,2.27284 0.50507,5.55584 0.50507,5.55584 0,0 -0.25254,-5.80838 -4.79822,-5.05076 -4.54569,0.75761 -4.79823,-1.26269 -6.06092,-3.03046 -1.26269,-1.76777 -4.54568,-2.27284 -4.54568,-2.27284 z"
         id="path5129" />
      <path
         style="fill:#874712;fill-opacity:1;stroke:none;stroke-width:1px;stroke-linecap:butt;stroke-linejoin:miter;stroke-opacity:1"
         d="m 787.2917,339.73811 14.28571,-4.82143 v -24.64285 c 0,0 6.96429,18.03571 6.25,25.71428 -0.71428,7.67857 -1.07143,10.89286 -1.60714,13.39286 -0.53572,2.5 -1.42857,6.25 -6.25,6.07143 -4.82143,-0.17857 -5.71429,-0.53572 -9.46429,-7.5 -3.75,-6.96429 -3.21428,-8.21429 -3.21428,-8.21429 z"
         id="path5133" />
      <path
         style="fill:#874712;fill-opacity:1;stroke:none;stroke-width:1px;stroke-linecap:butt;stroke-linejoin:miter;stroke-opacity:1"
         d="m 764.68548,330.83906 c 0,0 4.41942,9.34391 13.63706,13.51079 9.21764,4.16688 -1.01015,13.13198 -1.01015,13.13198 l 4.29315,-1.76777 -1.51523,3.78808 c 0,0 4.04061,-0.75762 4.04061,-4.04061 0,-3.283 0.50507,-4.16688 0.50507,-4.16688 l 0.75762,6.56599 c 0,0 1.26269,-2.27284 1.6415,-4.92449 0.3788,-2.65166 -1.76777,-6.566 -6.69226,-9.47018 -4.9245,-2.90419 -15.65737,-12.62691 -15.65737,-12.62691 z"
         id="path5135" />
      <path
         style="fill:#874712;fill-opacity:1;stroke:none;stroke-width:1px;stroke-linecap:butt;stroke-linejoin:miter;stroke-opacity:1"
         d="m 706.09663,353.82003 c 0,0 1.76777,16.66752 5.3033,18.43528 3.53554,1.76777 4.04061,5.05077 13.63706,3.78807 9.59645,-1.26269 20.70813,-8.33375 27.27412,-15.40482 6.56599,-7.07107 11.86929,-5.55584 11.11168,-14.89975 -0.75761,-9.34391 -3.03046,-38.63834 -3.03046,-38.63834 l -5.55584,-2.27284 v 14.14214 l 2.02031,21.46574 -0.50508,8.08122 -14.64721,14.39467 -19.1929,5.3033 z"
         id="path5139" />
      <path
         style="fill:#874712;fill-opacity:1;stroke:none;stroke-width:1px;stroke-linecap:butt;stroke-linejoin:miter;stroke-opacity:1"
         d="m 701.55095,384.37714 c 0,0 24.24366,1.26269 42.4264,-10.35406 18.18275,-11.61675 18.18275,-11.61675 18.18275,-11.61675 0,0 -23.23351,21.2132 -44.19417,22.72843 -20.96067,1.51523 -16.41498,-0.75762 -16.41498,-0.75762 z"
         id="path5143" />
      <path
         style="fill:#874712;fill-opacity:1;stroke:none;stroke-width:1px;stroke-linecap:butt;stroke-linejoin:miter;stroke-opacity:1"
         d="m 649.27555,392.96344 c 0,0 -2.52538,15.9099 12.37437,6.81853 14.89975,-9.09137 16.92006,-16.16244 16.92006,-16.16244 0,0 -17.93021,15.9099 -29.29443,9.34391 z"
         id="path5145" />
      <path
         style="fill:#874712;fill-opacity:1;stroke:none;stroke-width:1px;stroke-linecap:butt;stroke-linejoin:miter;stroke-opacity:1"
         d="m 775.50598,290.63097 -5.35714,17.85714 c 0,0 8.57143,-6.78571 13.21429,-7.85714 4.64285,-1.07143 8.39285,-1.25 8.39285,-1.25 l 1.42857,-13.39286 c 0,0 -10.17857,7.67857 -17.67857,4.64286 z"
         id="path5147" />
      <path
         style="fill:#874712;fill-opacity:1;stroke:none;stroke-width:1px;stroke-linecap:butt;stroke-linejoin:miter;stroke-opacity:1"
         d="m 723.52176,474.02818 c 0,0 20.20306,-10.85914 22.98097,-15.65736 l 2.02031,5.05076 z"
         id="path5149" />
      <path
         style="fill:#874712;fill-opacity:1;stroke:none;stroke-width:1px;stroke-linecap:butt;stroke-linejoin:miter;stroke-opacity:1"
         d="m 766.70579,429.07639 c 0,0 16.41497,-11.61675 20.70812,-16.16244 0,0 -10.85914,16.16244 -15.15229,16.16244 -4.29314,0 -5.55583,0 -5.55583,0 z"
         id="path5151" />
    </g>
  </g>
</svg>
