<?xml version="1.0" encoding="UTF-8" standalone="no"?>
<svg
   xmlns:dc="http://purl.org/dc/elements/1.1/"
   xmlns:cc="http://creativecommons.org/ns#"
   xmlns:rdf="http://www.w3.org/1999/02/22-rdf-syntax-ns#"
   xmlns:svg="http://www.w3.org/2000/svg"
   xmlns="http://www.w3.org/2000/svg"
   id="svg4769"
   version="1.1"
   viewBox="0 0 512 512"
   height="512"
   width="512">
  <defs
     id="defs4763" />
  <metadata
     id="metadata4766">
    <rdf:RDF>
      <cc:Work
         rdf:about="">
        <dc:format>image/svg+xml</dc:format>
        <dc:type
           rdf:resource="http://purl.org/dc/dcmitype/StillImage" />
        <dc:title></dc:title>
      </cc:Work>
    </rdf:RDF>
  </metadata>
  <g
     transform="translate(0,-161.53331)"
     id="layer1">
    <g
       transform="rotate(15,601.51662,495.02936)"
       id="g9391">
      <path
         style="color:#000000;font-style:normal;font-variant:normal;font-weight:normal;font-stretch:normal;font-size:medium;line-height:normal;font-family:sans-serif;font-variant-ligatures:normal;font-variant-position:normal;font-variant-caps:normal;font-variant-numeric:normal;font-variant-alternates:normal;font-feature-settings:normal;text-indent:0;text-align:start;text-decoration:none;text-decoration-line:none;text-decoration-style:solid;text-decoration-color:#000000;letter-spacing:normal;word-spacing:normal;text-transform:none;writing-mode:lr-tb;direction:ltr;text-orientation:mixed;dominant-baseline:auto;baseline-shift:baseline;text-anchor:start;white-space:normal;shape-padding:0;clip-rule:nonzero;display:inline;overflow:visible;visibility:visible;opacity:1;isolation:auto;mix-blend-mode:normal;color-interpolation:sRGB;color-interpolation-filters:linearRGB;solid-color:#000000;solid-opacity:1;vector-effect:none;fill:#fcfdfe;fill-opacity:1;fill-rule:nonzero;stroke:none;stroke-width:6.46925068;stroke-linecap:round;stroke-linejoin:round;stroke-miterlimit:4;stroke-dasharray:none;stroke-dashoffset:0;stroke-opacity:1;color-rendering:auto;image-rendering:auto;shape-rendering:auto;text-rendering:auto;enable-background:accumulate"
         d="m 405.61914,176.02148 c -0.0313,2e-4 -0.0625,8.5e-4 -0.0937,0.002 -19.53351,0.36455 -31.43017,5.74397 -41.89844,13.28544 -10.46827,7.54147 -19.0239,17.08402 -22.26757,32.9587 -6.38466,31.24679 -2.737,79.69891 -0.91016,153.25781 l -13.58203,0.20117 c -1.83706,0.0275 -3.28246,1.57761 -3.18164,3.41211 l 1.72851,31.12305 c 0.0965,1.73313 1.54369,3.08117 3.2793,3.05469 l 28.09766,-0.43164 c 1.78393,-0.0281 3.20827,-1.49532 3.18359,-3.2793 l -0.43164,-31.12305 c -0.025,-1.78778 -1.49545,-3.21629 -3.2832,-3.18945 l -9.34766,0.13867 c -1.82266,-73.7001 -5.23023,-122.41809 0.78711,-151.86719 3.05718,-14.962 10.82738,-22.60575 19.71094,-29.00557 8.84674,-6.3733 19.27508,-11.68095 38.01953,-12.05497 18.78232,2.09998 29.35286,8.73275 37.18387,15.31278 7.86123,6.60542 13.35846,13.30175 15.22433,25.29659 3.73174,23.9897 -1.49017,59.80347 0.27734,107.12305 0.0368,0.98412 0.51995,1.89786 1.3125,2.48242 l 4.58008,3.375 -10.5625,7.36133 c -1.92431,1.34142 -1.82587,4.22086 0.18555,5.42773 l 8.43945,5.0625 -9.35351,5.84571 c -2.20941,1.38121 -1.96277,4.67424 0.42773,5.71093 l 7.1543,3.09961 -6.22071,3.68555 c -2.20197,1.30582 -2.08655,4.53071 0.20313,5.67578 l 8.74609,4.37305 -9.54492,4.50586 c -2.3881,1.12762 -2.49176,4.48705 -0.17773,5.75976 l 11.40429,6.27344 -4.17382,1.73828 c -1.20537,0.50247 -1.99041,1.68042 -1.99024,2.98633 v 36.99219 l -9.58008,-0.45703 c -1.79127,-0.0846 -3.30957,1.30401 -3.38476,3.0957 l -1.29688,30.68945 c -0.0838,1.97068 1.60036,3.55697 3.5625,3.35547 l 29.39453,-3.02734 c 1.68883,-0.17471 2.95523,-1.62531 2.90039,-3.32227 l -0.86328,-26.36914 c -0.0554,-1.68517 -1.39588,-3.04519 -3.08007,-3.125 l -11.1836,-0.5332 V 405.7559 l 8.38477,-3.49414 c 2.50118,-1.04265 2.68873,-4.51425 0.31445,-5.82031 l -11.73828,-6.45508 9.83203,-4.64258 c 2.44032,-1.15313 2.47863,-4.61145 0.0644,-5.81836 l -9.39257,-4.69727 6.56836,-3.89257 c 2.27071,-1.34619 2.06004,-4.69866 -0.36133,-5.75 l -7.31836,-3.17188 8.61133,-5.38086 c 2.04932,-1.28081 2.02176,-4.27471 -0.0508,-5.51758 l -8.68359,-5.21093 10.16602,-7.08399 c 1.81678,-1.26703 1.85159,-3.94398 0.0684,-5.25781 l -6.92969,-5.10547 c -1.56714,-45.92927 3.65011,-80.82631 -0.31836,-106.33789 -2.00694,-12.9017 -8.19015,-21.4693 -17.45675,-29.25558 -9.2666,-7.78629 -21.22447,-14.65548 -40.83231,-16.82254 -0.10703,-0.0119 -0.21459,-0.0184 -0.32227,-0.0195 z m -52.5,205.78711 0.3418,24.65821 -21.75977,0.33398 -1.36914,-24.6543 12.11133,-0.17968 c 0.87768,0.39669 1.88648,0.38165 2.75195,-0.041 z m 98.78711,64.94336 21.00195,1 0.66797,20.3711 -22.67187,2.33398 z"
         transform="translate(0,161.53331)"
         id="path9260" />
      <path
         style="color:#000000;font-style:normal;font-variant:normal;font-weight:normal;font-stretch:normal;font-size:medium;line-height:normal;font-family:sans-serif;font-variant-ligatures:normal;font-variant-position:normal;font-variant-caps:normal;font-variant-numeric:normal;font-variant-alternates:normal;font-feature-settings:normal;text-indent:0;text-align:start;text-decoration:none;text-decoration-line:none;text-decoration-style:solid;text-decoration-color:#000000;letter-spacing:normal;word-spacing:normal;text-transform:none;writing-mode:lr-tb;direction:ltr;text-orientation:mixed;dominant-baseline:auto;baseline-shift:baseline;text-anchor:start;white-space:normal;shape-padding:0;clip-rule:nonzero;display:inline;overflow:visible;visibility:visible;opacity:1;isolation:auto;mix-blend-mode:normal;color-interpolation:sRGB;color-interpolation-filters:linearRGB;solid-color:#000000;solid-opacity:1;vector-effect:none;fill:#f4adbc;fill-opacity:1;fill-rule:nonzero;stroke:none;stroke-width:3.88155055;stroke-linecap:round;stroke-linejoin:round;stroke-miterlimit:4;stroke-dasharray:none;stroke-dashoffset:0;stroke-opacity:1;color-rendering:auto;image-rendering:auto;shape-rendering:auto;text-rendering:auto;enable-background:accumulate"
         d="m 359.00373,476.41868 a 1.9409693,1.9409693 0 0 0 -1.19682,0.50814 l -6.59255,6.05098 a 1.9409693,1.9409693 0 1 0 2.62431,2.85832 l 3.33974,-3.06559 v 38.16457 a 1.9409693,1.9409693 0 1 0 3.88131,0 v -38.16457 l 3.22942,2.95862 a 1.9409693,1.9409693 0 1 0 2.62431,-2.85833 l -6.48557,-5.944 a 1.9409693,1.9409693 0 0 0 -1.42415,-0.50814 z"
         id="path9266" />
      <path
         id="path9275"
         d="m 434.00055,598.55284 a 1.9409693,1.9409693 0 0 1 -1.19682,-0.50814 l -6.59255,-6.05098 a 1.9409693,1.9409693 0 1 1 2.62432,-2.85833 l 3.33973,3.0656 v -38.16457 a 1.9409693,1.9409693 0 1 1 3.88131,0 v 38.16457 l 3.22942,-2.95862 a 1.9409693,1.9409693 0 1 1 2.62431,2.85833 l -6.48557,5.944 a 1.9409693,1.9409693 0 0 1 -1.42415,0.50814 z"
         style="color:#000000;font-style:normal;font-variant:normal;font-weight:normal;font-stretch:normal;font-size:medium;line-height:normal;font-family:sans-serif;font-variant-ligatures:normal;font-variant-position:normal;font-variant-caps:normal;font-variant-numeric:normal;font-variant-alternates:normal;font-feature-settings:normal;text-indent:0;text-align:start;text-decoration:none;text-decoration-line:none;text-decoration-style:solid;text-decoration-color:#000000;letter-spacing:normal;word-spacing:normal;text-transform:none;writing-mode:lr-tb;direction:ltr;text-orientation:mixed;dominant-baseline:auto;baseline-shift:baseline;text-anchor:start;white-space:normal;shape-padding:0;clip-rule:nonzero;display:inline;overflow:visible;visibility:visible;opacity:1;isolation:auto;mix-blend-mode:normal;color-interpolation:sRGB;color-interpolation-filters:linearRGB;solid-color:#000000;solid-opacity:1;vector-effect:none;fill:#f4adbc;fill-opacity:1;fill-rule:nonzero;stroke:none;stroke-width:3.88155055;stroke-linecap:round;stroke-linejoin:round;stroke-miterlimit:4;stroke-dasharray:none;stroke-dashoffset:0;stroke-opacity:1;color-rendering:auto;image-rendering:auto;shape-rendering:auto;text-rendering:auto;enable-background:accumulate" />
      <path
         style="opacity:1;fill:#5e7eb3;fill-opacity:1;fill-rule:nonzero;stroke:#fcfdfe;stroke-width:10.5071373;stroke-linecap:round;stroke-linejoin:round;stroke-miterlimit:4;stroke-dasharray:none;stroke-dashoffset:0;stroke-opacity:1;paint-order:stroke fill markers"
         d="m 403.14035,354.22082 a 47.068604,47.068604 0 0 0 -47.07025,47.07024 47.068604,47.068604 0 0 0 47.07025,47.06701 47.068604,47.068604 0 0 0 47.06701,-47.06701 47.068604,47.068604 0 0 0 -47.06701,-47.07024 z m 0,31.77465 a 15.294474,15.294474 0 0 1 15.29556,15.29559 15.294474,15.294474 0 0 1 -15.29556,15.29557 15.294474,15.294474 0 0 1 -15.29559,-15.29557 15.294474,15.294474 0 0 1 15.29559,-15.29559 z"
         id="path9277" />
    </g>
    <g
       transform="matrix(1.2802946,0,0,1.2802946,153.76749,-370.04217)"
       id="g9380">
      <path
         transform="matrix(0.78107023,0,0,0.78107023,-84.397138,335.97495)"
         id="path9359"
         d="m 224.42188,126.27539 c -6.66025,0 -12.86692,3.18807 -18.17774,8.43359 -5.31082,5.24552 -9.88235,12.5784 -13.70117,21.4961 -0.95946,2.24052 -1.86977,4.5826 -2.73047,7.01758 -2.10921,-0.5021 -4.18975,-0.95032 -6.2207,-1.31641 -5.6936,-1.0263 -11.05505,-1.50529 -16.01172,-1.4082 a 10.973953,10.973953 0 0 0 -10.60156,-8.16016 10.973953,10.973953 0 0 0 -10.97461,10.97461 10.973953,10.973953 0 0 0 0.46289,3.125 c -2.13065,1.54704 -3.96247,3.40699 -5.41211,5.60547 -3.66637,5.56028 -4.42247,12.49902 -2.9668,19.82031 1.45568,7.32129 5.06356,15.1743 10.40625,23.27149 3.67289,5.56648 8.19199,11.25075 13.42578,16.91211 -4.12025,6.51772 -7.53471,12.92745 -10.13672,19.06835 -3.78474,8.93222 -5.90674,17.30954 -6.00976,24.77344 -0.10304,7.46389 1.9012,14.14848 6.51562,18.95117 4.61444,4.8027 11.21374,7.07222 18.67578,7.26758 6.99793,0.18321 14.87639,-1.39681 23.31446,-4.41601 3.446,7.20094 7.43444,13.20694 11.96484,17.68164 3.80521,3.75842 8.07243,6.45158 12.63477,7.68164 a 10.973953,10.973953 0 0 0 9.88867,6.23828 10.973953,10.973953 0 0 0 10.97265,-10.97266 10.973953,10.973953 0 0 0 -0.0137,-0.38672 c 0.98418,-0.78725 1.94364,-1.64064 2.875,-2.56054 5.31082,-5.24552 9.88235,-12.58035 13.70117,-21.49805 0.56873,-1.32809 1.11593,-2.70212 1.65039,-4.09961 1.85137,0.42844 3.68258,0.82186 5.47266,1.14453 9.54711,1.72094 18.18752,1.94262 25.49024,0.39649 7.30272,-1.54614 13.37856,-4.97489 17.04492,-10.53516 3.66636,-5.56028 4.42442,-12.49706 2.96875,-19.81836 -1.45566,-7.32129 -5.0616,-15.1743 -10.4043,-23.27148 -3.67322,-5.567 -8.19301,-11.25199 -13.42773,-16.91407 4.11932,-6.51667 7.5311,-12.92621 10.13281,-19.0664 3.78473,-8.93223 5.90674,-17.30954 6.00976,-24.77344 0.0174,-1.26311 -0.0312,-2.50162 -0.13671,-3.71484 a 10.973953,10.973953 0 0 0 3.5664,-8.08204 10.973953,10.973953 0 0 0 -10.97461,-10.97265 10.973953,10.973953 0 0 0 -3.13867,0.4668 c -4.08859,-2.5241 -9.06622,-3.77361 -14.50586,-3.91602 -6.25319,-0.16372 -13.21137,1.08077 -20.64062,3.49805 -3.63402,-8.01414 -7.90173,-14.66128 -12.8086,-19.50782 -5.31083,-5.24552 -11.51945,-8.43359 -18.17968,-8.43359 z m 0,6.40234 c 4.64051,0 9.20037,2.15977 13.68164,6.58594 4.05583,4.00596 7.91316,9.85695 11.26953,17.13867 -9.75688,3.86685 -20.18833,9.58359 -30.71875,16.95118 -7.77652,-3.54798 -15.37375,-6.37874 -22.625,-8.48438 0.76262,-2.1327 1.55945,-4.18794 2.39648,-6.14258 3.58691,-8.37612 7.83514,-15.03672 12.31641,-19.46289 4.48127,-4.42617 9.03916,-6.58594 13.67969,-6.58594 z m 51.46289,24.43946 c 3.41452,0.0894 6.34832,0.67428 8.8457,1.70898 a 10.973953,10.973953 0 0 0 -2.00781,6.31445 10.973953,10.973953 0 0 0 10.97265,10.97461 10.973953,10.973953 0 0 0 1.12891,-0.0703 c 0.003,0.27003 0.0194,0.5269 0.0156,0.80274 -0.0869,6.29802 -1.94509,13.97547 -5.5,22.36523 -2.27069,5.35899 -5.23407,11.00623 -8.8164,16.79688 -3.9739,-3.97337 -8.29871,-7.91483 -12.93946,-11.77735 -1.55255,-16.62578 -4.93075,-31.69578 -9.68945,-44.08594 6.71775,-2.13176 12.84294,-3.16406 17.99024,-3.02929 z m -24.02149,5.18359 c 3.93086,10.21054 6.93543,22.59253 8.6543,36.30664 -4.04786,-3.08869 -8.28722,-6.11111 -12.71875,-9.0332 -7.49244,-4.94041 -15.0304,-9.27788 -22.46485,-13.00977 9.20132,-6.16694 18.20702,-10.97571 26.5293,-14.26367 z m -81.97266,4.5918 c 3.86562,0.0691 8.0808,0.50234 12.56446,1.31054 1.74923,0.31532 3.54966,0.70547 5.375,1.13282 -3.34559,11.12693 -5.69517,23.86504 -6.80274,37.61328 -5.80268,6.4924 -10.99242,13.06755 -15.47656,19.58008 -4.57346,-5.04438 -8.51146,-10.06205 -11.7168,-14.91992 -5.01823,-7.60545 -8.23849,-14.81644 -9.46679,-20.99415 -1.2283,-6.1777 -0.52329,-11.1747 2.03125,-15.04882 0.95106,-1.44235 2.14863,-2.70798 3.59179,-3.79883 a 10.973953,10.973953 0 0 0 6.98829,2.51953 10.973953,10.973953 0 0 0 10.35546,-7.38086 c 0.83585,-0.0215 1.68422,-0.0293 2.55664,-0.0137 z m 24.14454,4.06836 c 5.95249,1.72368 12.20528,3.9821 18.63476,6.76172 -6.63445,5.01927 -13.26024,10.65261 -19.73242,16.87109 -1.60184,1.53905 -3.15567,3.0918 -4.6875,4.65039 1.25536,-10.28502 3.23402,-19.82517 5.78516,-28.2832 z m 25.29882,9.79687 c 8.20338,3.93292 16.60382,8.66247 24.94141,14.16016 6.10454,4.02525 11.83044,8.24835 17.15625,12.57031 0.46111,5.68681 0.71484,11.54937 0.71484,17.55274 0,5.53002 -0.21848,10.93816 -0.61132,16.20312 -3.70441,4.16927 -7.66478,8.3109 -11.89063,12.37109 -7.2025,6.92017 -14.60648,13.09456 -21.96094,18.45118 -8.20345,-3.93294 -16.60373,-8.66242 -24.9414,-14.16016 -5.25162,-3.46284 -10.22904,-7.07208 -14.91016,-10.76367 -0.73229,-7.08567 -1.13281,-14.48313 -1.13281,-22.10156 0,-5.26288 0.19416,-10.4168 0.55078,-15.44141 3.18917,-3.49988 6.56674,-6.97372 10.12305,-10.39063 7.20254,-6.9202 14.60612,-13.09486 21.96093,-18.45117 z m 7.14649,23.25 a 23.319651,23.319651 0 0 0 -23.32031,23.31836 23.319651,23.319651 0 0 0 23.32031,23.32031 23.319651,23.319651 0 0 0 23.32031,-23.32031 23.319651,23.319651 0 0 0 -23.32031,-23.31836 z m 41.75195,9.25391 c 3.07956,2.73726 5.9899,5.49545 8.71289,8.26172 -2.59881,3.83926 -5.44882,7.71917 -8.55273,11.60351 0.0939,-2.6687 0.1543,-5.36083 0.1543,-8.08593 0,-3.98977 -0.11484,-7.91442 -0.31446,-11.7793 z m -87.79883,4.2168 c -0.0822,2.49885 -0.13672,5.01461 -0.13671,7.5625 0,5.58454 0.2126,11.05124 0.5996,16.38086 -3.8718,-3.34205 -7.48421,-6.72617 -10.82421,-10.11915 3.09359,-4.57079 6.55623,-9.20033 10.36132,-13.82421 z m 101.0293,8.81836 c 4.5738,5.04465 8.51323,10.05981 11.71875,14.91796 5.01823,7.60545 8.24046,14.81838 9.46875,20.9961 1.2283,6.17769 0.52133,11.17277 -2.0332,15.04687 -2.55455,3.87414 -6.86725,6.49029 -13.0293,7.79492 -6.16203,1.30462 -14.06003,1.18479 -23.02734,-0.43164 -1.45765,-0.26275 -2.9519,-0.57929 -4.46289,-0.91992 3.77258,-11.60429 6.42915,-25.12745 7.66406,-39.8164 5.09337,-5.84226 9.67596,-11.74197 13.70117,-17.58789 z m -114.96875,10.51953 c 4.6233,4.62264 9.73344,9.20038 15.25195,13.66211 1.8118,15.63495 5.26278,29.73775 9.95508,41.33789 -7.73346,2.7195 -14.76981,4.04244 -20.56836,3.89062 -6.29647,-0.16484 -11.0134,-1.95644 -14.22851,-5.30273 -3.2151,-3.34627 -4.81546,-8.12971 -4.72852,-14.42774 0.0869,-6.29804 1.94902,-13.97351 5.50391,-22.36328 2.27059,-5.35874 5.23257,-11.00625 8.81445,-16.79687 z m 93.98047,15.01367 c -1.41635,11.13761 -3.68348,21.38256 -6.60547,30.29492 -6.21562,-1.75309 -12.77508,-4.1059 -19.52344,-7.02344 6.63473,-5.01953 13.2622,-10.65261 19.73438,-16.87109 2.20035,-2.1141 4.32702,-4.251 6.39453,-6.40039 z m -71.51758,4.22851 c 3.30196,2.4477 6.71649,4.85374 10.26172,7.19141 7.49297,4.94076 15.03153,9.2775 22.4668,13.00977 -8.28203,5.55164 -16.40674,10.00695 -24.01758,13.24023 -3.81073,-9.40694 -6.81685,-20.78297 -8.71094,-33.44141 z m 39.4043,23.41211 c 8.03713,3.66695 15.88797,6.57609 23.35742,8.70118 -0.42302,1.08654 -0.85728,2.14988 -1.30078,3.18554 -3.58691,8.37614 -7.83318,15.03477 -12.31445,19.46094 -0.24562,0.2426 -0.49219,0.45264 -0.73829,0.68164 a 10.973953,10.973953 0 0 1 -0.002,-0.002 10.973953,10.973953 0 0 0 -8.5957,-4.15235 10.973953,10.973953 0 0 0 -10.71875,8.64649 c -2.4583,-1.08573 -4.89372,-2.79057 -7.30664,-5.17383 -3.74,-3.69401 -7.31237,-8.96194 -10.47852,-15.4668 8.99418,-3.82394 18.50489,-9.16918 28.09766,-15.88086 z"
         style="color:#000000;font-style:normal;font-variant:normal;font-weight:normal;font-stretch:normal;font-size:medium;line-height:normal;font-family:sans-serif;font-variant-ligatures:normal;font-variant-position:normal;font-variant-caps:normal;font-variant-numeric:normal;font-variant-alternates:normal;font-feature-settings:normal;text-indent:0;text-align:start;text-decoration:none;text-decoration-line:none;text-decoration-style:solid;text-decoration-color:#000000;letter-spacing:normal;word-spacing:normal;text-transform:none;writing-mode:lr-tb;direction:ltr;text-orientation:mixed;dominant-baseline:auto;baseline-shift:baseline;text-anchor:start;white-space:normal;shape-padding:0;clip-rule:nonzero;display:inline;overflow:visible;visibility:visible;opacity:1;isolation:auto;mix-blend-mode:normal;color-interpolation:sRGB;color-interpolation-filters:linearRGB;solid-color:#000000;solid-opacity:1;vector-effect:none;fill:#fcfdfe;fill-opacity:1;fill-rule:nonzero;stroke:none;stroke-width:6.40147305;stroke-linecap:round;stroke-linejoin:round;stroke-miterlimit:4;stroke-dasharray:none;stroke-dashoffset:0;stroke-opacity:1;paint-order:stroke fill markers;color-rendering:auto;image-rendering:auto;shape-rendering:auto;text-rendering:auto;enable-background:accumulate" />
    </g>
    <path
       id="path9393"
       transform="translate(0,161.53331)"
       d="M 92.103516 385.21094 L 91.900391 385.22266 L 91.492188 385.30273 L 91.429688 385.32617 L 91.3125 385.44141 C 90.666971 385.56571 90.047581 385.80552 89.494141 386.16016 C 88.226672 386.97234 87.242206 388.23886 86.375 389.82227 C 84.640588 392.98908 83.348255 397.53977 82.25 403.125 C 80.053489 414.29546 78.741774 429.56785 77.640625 445.03516 C 76.539476 460.50247 75.654065 476.15563 74.363281 487.93164 C 73.717889 493.81965 72.963574 498.74721 72.066406 502.11523 C 71.617822 503.79924 71.121829 505.09541 70.671875 505.85938 C 70.221921 506.62333 69.949988 506.68498 69.96875 506.68359 C 69.92773 506.68659 69.774964 506.70469 69.328125 506.11523 C 68.881286 505.52574 68.337675 504.43662 67.828125 502.97266 C 66.809026 500.04473 65.864705 495.62857 65.017578 490.2793 C 63.323325 479.58076 61.980249 465.11254 60.675781 450.5332 C 59.371314 435.95385 58.104525 421.25985 56.541016 410 C 55.759261 404.37008 54.909943 399.60663 53.912109 396.07812 C 53.413193 394.31388 52.883291 392.8586 52.248047 391.70703 C 51.612803 390.55547 50.855279 389.56588 49.568359 389.24414 C 48.295706 388.92598 47.030986 389.65836 46.275391 390.58008 C 45.519795 391.5018 44.951386 392.70451 44.398438 394.21094 C 43.292535 397.2238 42.329047 401.46938 41.419922 406.62109 C 39.601671 416.9245 38.041136 430.80261 36.556641 444.77734 C 35.072146 458.75207 33.665029 472.81899 32.175781 483.39648 C 31.431157 488.68522 30.662583 493.11014 29.876953 496.15234 C 29.484138 497.67344 29.076498 498.8534 28.728516 499.55469 C 28.601498 499.81067 28.514879 499.91696 28.431641 500.0293 C 28.198793 500.0333 28.039707 500.0449 27.59375 499.36719 C 27.07404 498.57738 26.492756 497.09573 25.982422 495.06055 C 24.961753 490.99018 24.137553 484.71955 23.269531 476.70312 C 21.533488 460.6703 19.585512 437.5933 15.072266 410.10352 C 13.938021 403.19494 12.831155 398.63282 11.654297 395.76953 C 11.065868 394.33789 10.494828 393.30626 9.6308594 392.57422 C 9.1988748 392.2082 8.6509299 391.92076 8.0351562 391.85547 C 7.4193829 391.79017 6.8022385 391.97078 6.3300781 392.25586 C 5.3857574 392.82602 4.8288774 393.69138 4.28125 394.75195 C 3.7336226 395.81251 3.2395123 397.10715 2.7636719 398.61328 C 1.8119911 401.62556 0.94389955 405.48513 0.14453125 409.76562 C 0.094014084 410.03614 0.049937205 410.33562 0 410.60938 L 0 431.16016 C 0.83348849 424.34673 1.878752 416.82252 3.09375 410.31641 C 3.8805558 406.10319 4.7378702 402.32554 5.625 399.51758 C 6.0685649 398.1136 6.5231217 396.95033 6.9472656 396.12891 C 7.3181592 395.41062 7.625137 395.11161 7.7636719 394.98633 C 7.9771114 395.19667 8.4116239 395.77326 8.8789062 396.91016 C 9.873443 399.32986 10.994229 403.78569 12.111328 410.58984 C 16.603453 437.95097 18.543797 460.92542 20.287109 477.02539 C 21.158766 485.07538 21.971457 491.3913 23.074219 495.78906 C 23.6256 497.98793 24.22929 499.7108 25.087891 501.01562 C 25.946491 502.32047 27.363192 503.29016 28.902344 503.11914 C 29.599804 503.04164 30.134143 502.65959 30.509766 502.25977 C 30.885389 501.85994 31.158886 501.40686 31.416016 500.88867 C 31.930274 499.85228 32.360193 498.5328 32.78125 496.90234 C 33.623364 493.64141 34.394478 489.15562 35.146484 483.81445 C 36.650497 473.13209 38.057831 459.05615 39.541016 445.09375 C 41.0242 431.13136 42.585982 417.27839 44.375 407.14062 C 45.269509 402.07174 46.232493 397.92041 47.214844 395.24414 C 47.706019 393.90601 48.220428 392.94021 48.595703 392.48242 C 48.771337 392.26817 48.832449 392.20083 48.857422 392.17188 C 48.83917 392.1772 49.1938 392.37812 49.623047 393.15625 C 50.0725 393.97102 50.56253 395.25778 51.025391 396.89453 C 51.951111 400.16803 52.797874 404.84928 53.570312 410.41211 C 55.11519 421.53778 56.382456 436.215 57.6875 450.80078 C 58.992544 465.38657 60.333548 479.87974 62.054688 490.74805 C 62.915256 496.1822 63.861386 500.6989 64.996094 503.95898 C 65.563448 505.58901 66.163374 506.90905 66.935547 507.92773 C 67.70772 508.9464 68.850915 509.77313 70.191406 509.67383 C 71.591675 509.57011 72.568703 508.55086 73.257812 507.38086 C 73.946922 506.21086 74.479186 504.71918 74.966797 502.88867 C 75.942019 499.22763 76.692735 494.2169 77.345703 488.25977 C 78.65164 476.34551 79.533785 460.68555 80.632812 445.24805 C 81.731842 429.81055 83.053477 414.58561 85.193359 403.70312 C 86.263301 398.26189 87.565083 393.8979 89.007812 391.26367 C 89.72918 389.94655 90.48058 389.09098 91.113281 388.68555 C 91.53898 388.41276 91.890181 388.30248 92.300781 388.32422 L 92.363281 388.35352 L 92.933594 388.74023 L 93.792969 389.48242 L 94.931641 390.6543 L 96.371094 392.35156 L 97.255859 393.51172 L 98.402344 394.10156 L 99.583984 393.58203 L 99.923828 392.33594 L 99.642578 391.69336 L 98.736328 390.50391 L 98.6875 390.44336 L 97.195312 388.68359 L 97.126953 388.60938 L 95.904297 387.34766 L 95.808594 387.25781 L 94.832031 386.41406 L 94.757812 386.35742 A 1.5003699 1.5003699 0 0 0 93.867188 385.58594 C 93.633655 385.51163 93.397272 385.46013 93.160156 385.41992 L 92.875 385.32227 L 92.511719 385.24219 L 92.103516 385.21094 z M 103.69531 398.5293 L 102.47852 398.95898 L 102.04492 400.17383 L 102.27734 400.83789 L 102.58594 401.31445 L 105.32617 405.81445 L 105.3457 405.8457 L 106.86719 408.48633 L 107.93164 409.21875 L 109.16992 408.85352 L 109.66602 407.66211 L 109.4668 406.98828 L 107.92578 404.31641 L 107.9082 404.28516 L 105.12695 399.71875 L 105.10352 399.68164 L 104.79492 399.20508 L 103.69531 398.5293 z M 112.82812 414.11523 L 111.58398 414.45508 L 111.0625 415.63672 L 111.24805 416.31445 L 112.01172 417.70117 L 112.00977 417.70117 L 115.46094 424.23828 L 116.49609 425.00977 L 117.74609 424.69141 L 118.28711 423.51953 L 118.11328 422.83789 L 114.66406 416.30078 L 114.65234 416.27734 L 113.87695 414.86914 L 112.82812 414.11523 z M 121.19531 430.08594 L 119.93945 430.38477 L 119.38086 431.54883 L 119.54492 432.23242 L 120.38672 433.88867 L 120.40234 433.91797 L 121.62305 436.19141 L 121.66602 436.26562 L 123.00391 438.44922 L 123.05078 438.51953 L 124.19336 440.16406 L 125.3125 440.80469 L 126.51562 440.33594 L 126.91211 439.10742 L 126.65625 438.45312 L 125.53711 436.83984 L 124.24023 434.72461 L 123.06055 432.52734 L 123.05859 432.52344 L 123.04492 432.49805 L 122.21875 430.87305 L 121.19531 430.08594 z M 131.13086 444.5918 L 130.05273 445.29883 L 129.92188 446.58203 L 130.30664 447.16992 L 131.57422 448.36133 L 131.62695 448.4082 L 133.58398 450.08008 L 133.63672 450.12305 L 135.68164 451.71484 L 135.73242 451.75195 L 137.44141 452.96875 L 138.71289 453.19141 L 139.68555 452.3457 L 139.64258 451.05469 L 139.18164 450.52539 L 137.52539 449.34766 L 137.50195 449.33008 L 135.5332 447.79688 L 133.60742 446.15234 L 132.36133 444.98438 L 131.13086 444.5918 z M 145.41016 455.00586 L 144.57227 455.98828 L 144.80859 457.25781 L 145.34375 457.71289 L 147.30859 458.70703 L 147.35156 458.72852 L 149.83008 459.88477 L 149.87109 459.90234 L 152.40625 460.99219 L 152.44727 461.00977 L 153.66016 461.49023 L 154.94727 461.40234 L 155.69141 460.34766 L 155.33984 459.10547 L 154.76562 458.70117 L 153.5918 458.23633 L 153.55273 458.21875 L 153.55078 458.21875 L 151.05664 457.14648 L 148.66406 456.03125 L 148.62695 456.01367 L 148.62109 456.00977 L 146.69922 455.03711 L 145.41016 455.00586 z M 163.15039 461.62695 L 161.87305 461.8125 L 161.21289 462.92188 L 161.66016 464.13477 L 162.26367 464.49219 L 163.17188 464.77344 L 163.20508 464.7832 L 165.95703 465.56836 L 165.98828 465.57617 L 168.77148 466.30273 L 168.80078 466.31055 L 171.04883 466.84961 L 172.31055 466.58203 L 172.89648 465.43164 L 172.37305 464.25195 L 171.74805 463.93164 L 169.5293 463.40039 L 169.5 463.39258 L 166.7793 462.68164 L 166.74805 462.67383 L 164.05859 461.9082 L 164.02734 461.89844 L 163.15039 461.62695 z M 180.48438 465.71289 L 179.23828 466.04883 L 178.7168 467.23047 L 179.30273 468.37891 L 179.94531 468.66406 L 180.22656 468.71484 L 180.26172 468.7207 L 186.00195 469.625 L 186.04688 469.63281 L 188.92773 470 L 190.15234 469.5957 L 190.61133 468.38867 L 189.96289 467.27344 L 189.30664 467.02344 L 186.46875 466.66211 L 186.45508 466.66016 L 186.42578 466.65625 L 180.76562 465.76367 L 180.72852 465.75781 L 180.48438 465.71289 z M 254.88477 467.07422 L 253.68164 467.21875 L 253.66016 467.2207 L 251.83008 467.41211 L 250.72852 468.08594 L 250.55859 469.36523 L 251.44531 470.30273 L 252.14258 470.39453 L 253.99414 470.20312 L 254.01562 470.19922 L 255.24219 470.05273 L 256.33203 469.36328 L 256.48438 468.08008 L 255.58398 467.15625 L 254.88477 467.07422 z M 198.17773 467.98047 L 196.97266 468.44727 L 196.57617 469.67578 L 197.28125 470.75781 L 197.95117 470.97266 L 203.18945 471.37109 L 203.22266 471.37305 L 206.96289 471.57227 L 208.15625 471.08008 L 208.52539 469.84375 L 207.79688 468.7793 L 207.12305 468.57812 L 203.41602 468.37891 L 203.4082 468.37891 L 203.38281 468.37695 L 198.17773 467.98047 z M 242.92383 468.16406 L 237.61328 468.50195 L 237.61328 468.50391 L 233.96484 468.66992 L 232.82617 469.27734 L 232.58203 470.54492 L 233.41211 471.5332 L 234.10156 471.66602 L 237.77734 471.49805 L 237.80469 471.49609 L 243.11523 471.1582 L 244.24219 470.5293 L 244.46289 469.25781 L 243.61523 468.28516 L 242.92383 468.16406 z M 216.06055 468.87891 L 214.88672 469.41602 L 214.56641 470.66602 L 215.33398 471.70312 L 216.01562 471.87695 L 219.37695 471.92773 L 219.40234 471.92773 L 224.38867 471.91797 L 224.41211 471.91797 L 225.06445 471.90625 L 226.21875 471.33008 L 226.49805 470.07031 L 225.69727 469.05859 L 225.00977 468.90625 L 224.38281 468.91797 L 224.35938 468.91797 L 219.42188 468.92773 L 219.41797 468.92773 L 219.39648 468.92773 L 216.06055 468.87891 z "
       style="color:#000000;font-style:normal;font-variant:normal;font-weight:normal;font-stretch:normal;font-size:medium;line-height:normal;font-family:sans-serif;font-variant-ligatures:normal;font-variant-position:normal;font-variant-caps:normal;font-variant-numeric:normal;font-variant-alternates:normal;font-feature-settings:normal;text-indent:0;text-align:start;text-decoration:none;text-decoration-line:none;text-decoration-style:solid;text-decoration-color:#000000;letter-spacing:normal;word-spacing:normal;text-transform:none;writing-mode:lr-tb;direction:ltr;text-orientation:mixed;dominant-baseline:auto;baseline-shift:baseline;text-anchor:start;white-space:normal;shape-padding:0;clip-rule:nonzero;display:inline;overflow:visible;visibility:visible;opacity:1;isolation:auto;mix-blend-mode:normal;color-interpolation:sRGB;color-interpolation-filters:linearRGB;solid-color:#000000;solid-opacity:1;vector-effect:none;fill:#f4adbc;fill-opacity:1;fill-rule:nonzero;stroke:none;stroke-width:3;stroke-linecap:round;stroke-linejoin:round;stroke-miterlimit:4;stroke-dasharray:none;stroke-dashoffset:0;stroke-opacity:1;color-rendering:auto;image-rendering:auto;shape-rendering:auto;text-rendering:auto;enable-background:accumulate" />
    <path
       id="path9429"
       transform="translate(0,161.53331)"
       d="M 275.14648 392.80859 L 250.09766 406.41406 C 250.09766 406.41406 267.6672 438.7764 276.80273 454.59961 C 278.22452 457.06222 279.49743 465.84248 276.63477 474.58203 C 273.8295 483.14631 268.04772 491.25469 259.33984 495.92188 L 259.33203 495.9082 C 259.24663 495.9644 259.15845 496.01398 259.07227 496.06836 C 258.98317 496.11516 258.89886 496.16574 258.80859 496.21094 L 258.81641 496.22461 C 250.42059 501.43226 240.50701 502.38592 231.6875 500.5332 C 222.68749 498.64257 215.71865 493.15011 214.29688 490.6875 C 205.16134 474.86429 185.91992 443.4668 185.91992 443.4668 L 161.61328 458.35742 C 161.61328 458.35742 180.98747 490.00587 189.60938 504.93945 C 191.09496 507.51257 192.82949 509.8566 194.75977 512 L 285.49023 512 C 294.35511 503.86471 300.37167 493.69145 303.72461 483.45508 C 308.58497 468.61667 308.94716 453.26148 301.49023 440.3457 C 292.86833 425.41212 275.14648 392.80859 275.14648 392.80859 z "
       style="color:#000000;font-style:normal;font-variant:normal;font-weight:normal;font-stretch:normal;font-size:medium;line-height:normal;font-family:sans-serif;font-variant-ligatures:normal;font-variant-position:normal;font-variant-caps:normal;font-variant-numeric:normal;font-variant-alternates:normal;font-feature-settings:normal;text-indent:0;text-align:start;text-decoration:none;text-decoration-line:none;text-decoration-style:solid;text-decoration-color:#000000;letter-spacing:normal;word-spacing:normal;text-transform:none;writing-mode:lr-tb;direction:ltr;text-orientation:mixed;dominant-baseline:auto;baseline-shift:baseline;text-anchor:start;white-space:normal;shape-padding:0;clip-rule:nonzero;display:inline;overflow:visible;visibility:visible;opacity:1;isolation:auto;mix-blend-mode:normal;color-interpolation:sRGB;color-interpolation-filters:linearRGB;solid-color:#000000;solid-opacity:1;vector-effect:none;fill:#ea3907;fill-opacity:1;fill-rule:nonzero;stroke:none;stroke-width:1.90042877;stroke-linecap:butt;stroke-linejoin:miter;stroke-miterlimit:4;stroke-dasharray:none;stroke-dashoffset:0;stroke-opacity:1;color-rendering:auto;image-rendering:auto;shape-rendering:auto;text-rendering:auto;enable-background:accumulate" />
    <path
       id="path9438"
       d="m 162.03843,619.98815 -12.47157,-21.60138 24.6873,-14.25322 12.13219,21.01358 z"
       style="fill:#030304;stroke:#ffffff;stroke-width:1.90042877px;stroke-linecap:butt;stroke-linejoin:miter;stroke-opacity:1;fill-opacity:1" />
    <path
       style="fill:#030304;stroke:#ffffff;stroke-width:1.90042877px;stroke-linecap:butt;stroke-linejoin:miter;stroke-opacity:1;fill-opacity:1"
       d="m 275.18852,554.66091 -12.47157,-21.60138 -24.68729,14.25322 12.1322,21.01357 z"
       id="path9441" />
    <path
       id="path9444"
       transform="translate(0,161.53331)"
       d="M 275.14648 392.80859 L 250.09766 406.41406 C 250.09766 406.41406 267.6672 438.7764 276.80273 454.59961 C 278.22452 457.06222 279.49743 465.84248 276.63477 474.58203 C 273.8295 483.14631 268.04772 491.25468 259.33984 495.92188 L 259.33203 495.9082 C 259.24663 495.9644 259.15845 496.01398 259.07227 496.06836 C 258.98317 496.11516 258.89886 496.16574 258.80859 496.21094 L 258.81641 496.22461 C 258.64133 496.3332 258.46153 496.4283 258.28516 496.5332 L 273.75195 512 L 285.51367 512 C 294.37323 503.86687 300.37306 493.68721 303.72461 483.45508 C 308.58497 468.61667 308.94716 453.26148 301.49023 440.3457 C 292.86833 425.41212 275.14648 392.80859 275.14648 392.80859 z "
       style="fill:#c31f03;stroke:none;stroke-width:1px;stroke-linecap:butt;stroke-linejoin:miter;stroke-opacity:1;fill-opacity:1" />
    <path
       id="path9449"
       transform="translate(0,161.53331)"
       d="M 275.52734 391.51953 L 248.80859 406.03125 L 249.26172 406.86719 C 249.26172 406.86719 266.82821 439.22204 275.98047 455.07422 C 276.50825 455.98836 277.24253 458.77724 277.37695 462.27344 C 277.51138 465.76964 277.12147 470.04641 275.73242 474.28711 C 273.07984 482.38525 267.64811 489.98024 259.63477 494.57422 L 259.63281 494.57227 L 258.80859 495.11523 C 258.76669 495.14283 258.68556 495.18804 258.58008 495.25391 C 258.57308 495.25891 258.57205 495.25867 258.56445 495.26367 C 258.49135 495.30367 258.4164 495.34443 258.38281 495.36133 L 257.46094 495.82227 L 257.46289 495.82422 C 249.48596 500.44803 240.2094 501.35269 231.88281 499.60352 C 227.51573 498.68613 223.61683 496.88405 220.65625 495.01953 C 217.69567 493.15502 215.64887 491.12508 215.12109 490.21094 C 205.96882 474.35875 186.73047 442.96875 186.73047 442.96875 L 186.23438 442.16016 L 185.42383 442.65625 L 160.30664 458.04297 L 160.80273 458.85352 C 160.80273 458.85352 180.18272 490.51082 188.78711 505.41406 C 190.16126 507.79416 191.74183 509.98271 193.48828 512 L 196.06055 512 C 193.93317 509.73382 192.03359 507.23612 190.43359 504.46484 C 181.94478 489.76179 163.56671 459.74339 162.91211 458.67383 L 185.59961 444.77734 C 186.24401 445.82913 204.51322 475.64053 213.47461 491.16211 C 214.36862 492.71059 216.51552 494.65833 219.64453 496.62891 C 222.77354 498.59949 226.85926 500.48966 231.49219 501.46289 C 240.40797 503.33584 250.42548 502.37453 258.99414 497.18555 C 259.09808 497.12265 259.21291 497.09545 259.31641 497.03125 L 259.51367 496.9082 L 259.52539 496.90234 L 259.53711 496.89453 L 259.54688 496.89062 L 259.56836 496.87695 L 259.58008 496.87109 L 259.78906 496.75977 C 259.90349 496.69847 259.99008 496.60739 260.10352 496.54492 C 260.10752 496.54292 260.11153 496.54011 260.11523 496.53711 C 268.87459 491.70842 274.70679 483.52562 277.53906 474.87891 C 279.01267 470.38006 279.41746 465.89626 279.27539 462.20117 C 279.13332 458.50607 278.52097 455.67152 277.62695 454.12305 C 268.66566 438.60163 251.98159 407.87559 251.39258 406.79102 L 274.77148 394.09375 C 275.37243 395.19907 292.17968 426.11814 300.66797 440.82031 C 307.95516 453.4421 307.62467 468.49076 302.82031 483.1582 C 299.4167 493.54926 293.23594 503.87276 284.07617 512 L 286.90234 512 C 295.48221 503.86698 301.32445 493.83241 304.62695 483.75 C 309.54332 468.74062 309.93916 453.08085 302.3125 439.87109 C 293.70812 424.96786 275.98047 392.35547 275.98047 392.35547 L 275.52734 391.51953 z "
       style="color:#000000;font-style:normal;font-variant:normal;font-weight:normal;font-stretch:normal;font-size:medium;line-height:normal;font-family:sans-serif;font-variant-ligatures:normal;font-variant-position:normal;font-variant-caps:normal;font-variant-numeric:normal;font-variant-alternates:normal;font-feature-settings:normal;text-indent:0;text-align:start;text-decoration:none;text-decoration-line:none;text-decoration-style:solid;text-decoration-color:#000000;letter-spacing:normal;word-spacing:normal;text-transform:none;writing-mode:lr-tb;direction:ltr;text-orientation:mixed;dominant-baseline:auto;baseline-shift:baseline;text-anchor:start;white-space:normal;shape-padding:0;clip-rule:nonzero;display:inline;overflow:visible;visibility:visible;opacity:1;isolation:auto;mix-blend-mode:normal;color-interpolation:sRGB;color-interpolation-filters:linearRGB;solid-color:#000000;solid-opacity:1;vector-effect:none;fill:#ffffff;fill-opacity:1;fill-rule:nonzero;stroke:none;stroke-width:1.90042877;stroke-linecap:butt;stroke-linejoin:miter;stroke-miterlimit:4;stroke-dasharray:none;stroke-dashoffset:0;stroke-opacity:1;color-rendering:auto;image-rendering:auto;shape-rendering:auto;text-rendering:auto;enable-background:accumulate" />
    <path
       id="path9462"
       d="m 127.7188,536.73164 55.66611,26.05387 -5.53595,-18.89991 43.10296,10.1204 -58.63256,-33.0811 5.09703,20.40991 z"
       style="fill:#ffef2f;fill-opacity:1;stroke:none;stroke-width:1.51020622px;stroke-linecap:butt;stroke-linejoin:miter;stroke-opacity:1" />
    <path
       id="path9483"
       transform="translate(0,161.53331)"
       d="M 51.138672 0 C 61.020749 9.3346599 69.590275 20.044043 76.525391 31.833984 L 76.431641 31.845703 L 76.355469 31.857422 L 73.183594 32.423828 L 73.111328 32.439453 L 70.710938 32.992188 L 69.701172 33.794922 L 69.689453 35.085938 L 70.683594 35.908203 L 71.386719 35.916016 L 73.740234 35.371094 L 76.837891 34.818359 L 78.140625 34.652344 C 81.526698 40.717852 84.474296 47.060606 86.970703 53.625 A 42.255207 42.255207 0 0 0 45.869141 95.839844 A 42.255207 42.255207 0 0 0 88.125 138.09375 A 42.255207 42.255207 0 0 0 92.574219 137.81055 C 81.332655 185.92683 46.009056 224.76262 0 240.9375 L 0 244.10742 C 39.521691 230.52094 71.447691 200.58385 87.6875 162.375 L 87.955078 162.70508 L 88.642578 162.85352 L 89.78125 162.82422 L 89.857422 162.82031 L 93.126953 162.57227 L 93.203125 162.56445 L 96.425781 162.1543 L 96.501953 162.14258 L 97.8125 161.9082 L 98.861328 161.1582 L 98.9375 159.86914 L 97.986328 158.99805 L 97.283203 158.95508 L 96.011719 159.18164 L 92.863281 159.58203 L 89.667969 159.82422 L 88.726562 159.84961 C 91.638516 152.62683 93.990371 145.11897 95.738281 137.38281 A 42.255207 42.255207 0 0 0 130.38086 95.839844 A 42.255207 42.255207 0 0 0 90.197266 53.6875 C 87.642635 46.804101 84.59776 40.159132 81.087891 33.804688 L 81.142578 33.773438 L 81.349609 32.498047 L 80.490234 31.535156 L 79.794922 31.423828 L 79.753906 31.425781 C 73.084758 19.863725 64.877436 9.3055984 55.431641 0 L 51.138672 0 z M 88.935547 31.154297 L 87.757812 31.679688 L 87.423828 32.927734 L 88.181641 33.972656 L 88.861328 34.154297 L 89.667969 34.175781 L 92.863281 34.417969 L 96.011719 34.818359 L 97.574219 35.095703 L 98.818359 34.753906 L 99.335938 33.572266 L 98.744141 32.425781 L 98.101562 32.142578 L 96.501953 31.857422 L 96.425781 31.845703 L 93.203125 31.435547 L 93.126953 31.427734 L 89.857422 31.179688 L 89.78125 31.175781 L 88.935547 31.154297 z M 107.03711 34.396484 L 105.75391 34.548828 L 105.06641 35.640625 L 105.48047 36.863281 L 106.07422 37.238281 L 108.05273 37.90625 L 110.92188 39.037109 L 113.7207 40.304688 L 113.73438 40.310547 L 114.19727 40.548828 L 115.48633 40.585938 L 116.32812 39.607422 L 116.09766 38.335938 L 115.56445 37.878906 L 115.03516 37.607422 L 114.9707 37.576172 L 112.11719 36.287109 L 112.04883 36.257812 L 109.125 35.105469 L 109.05469 35.080078 L 107.03711 34.396484 z M 62.634766 35.714844 L 61.939453 35.8125 L 60.808594 36.257812 L 60.740234 36.287109 L 57.886719 37.576172 L 57.820312 37.607422 L 55.042969 39.03125 L 54.980469 39.064453 L 53.652344 39.828125 L 52.917969 40.890625 L 53.28125 42.128906 L 54.472656 42.626953 L 55.146484 42.429688 L 56.412109 41.701172 L 56.423828 41.695312 L 59.123047 40.310547 L 59.136719 40.304688 L 61.9375 39.037109 L 63.039062 38.601562 L 63.919922 37.658203 L 63.740234 36.380859 L 62.634766 35.714844 z M 132.58984 40.369141 A 8.5052061 8.5052061 0 0 0 125.61719 44.009766 L 123.51953 42.519531 L 122.24805 42.296875 L 121.27344 43.142578 L 121.32031 44.433594 L 121.78125 44.962891 L 124.07422 46.59375 L 124.0957 46.609375 L 124.34961 46.810547 A 8.5052061 8.5052061 0 0 0 124.08398 48.875 A 8.5052061 8.5052061 0 0 0 132.58984 57.380859 A 8.5052061 8.5052061 0 0 0 135.00391 57.023438 L 136.84766 59.373047 L 136.86133 59.390625 L 138.57422 61.798828 L 138.58008 61.808594 L 139.92773 63.908203 L 141.02344 64.589844 L 142.24219 64.167969 L 142.68359 62.953125 L 142.45312 62.289062 L 141.09961 60.179688 L 141.05859 60.119141 L 139.26367 57.59375 L 139.2207 57.537109 L 137.73047 55.640625 A 8.5052061 8.5052061 0 0 0 141.09375 48.875 A 8.5052061 8.5052061 0 0 0 132.58984 40.369141 z M 46.646484 44.667969 L 46.007812 44.960938 L 44.53125 46.119141 L 44.476562 46.166016 L 42.140625 48.189453 L 42.085938 48.238281 L 39.849609 50.371094 L 39.798828 50.421875 L 39.150391 51.103516 L 38.748047 52.330078 L 39.447266 53.414062 L 40.730469 53.552734 L 41.320312 53.171875 L 41.945312 52.519531 L 44.142578 50.423828 L 44.15625 50.410156 L 46.435547 48.439453 L 46.441406 48.433594 L 47.861328 47.320312 L 48.433594 46.162109 L 47.896484 44.990234 L 46.646484 44.667969 z M 35.029297 57.628906 L 33.738281 57.673828 L 33.208984 58.134766 L 31.796875 60.119141 L 31.757812 60.179688 L 30.082031 62.792969 L 30.044922 62.853516 L 28.494141 65.550781 L 28.458984 65.615234 L 28.298828 65.927734 L 28.261719 67.216797 L 29.242188 68.058594 L 30.511719 67.828125 L 30.96875 67.294922 L 31.113281 67.013672 L 32.607422 64.412109 L 32.619141 64.394531 L 34.277344 61.808594 L 34.283203 61.798828 L 35.654297 59.875 L 35.876953 58.603516 L 35.029297 57.628906 z M 145.75977 69.603516 L 144.49219 69.845703 L 143.88086 70.982422 L 144.01367 71.671875 L 144.39844 72.525391 L 144.4082 72.546875 L 145.51758 75.363281 L 146.51367 78.310547 L 146.51953 78.328125 L 146.97266 79.927734 L 147.82617 80.896484 L 149.11523 80.84375 L 149.88672 79.810547 L 149.85938 79.107422 L 149.38477 77.4375 L 149.36133 77.367188 L 148.34961 74.373047 L 148.32422 74.304688 L 147.16992 71.378906 L 147.14258 71.310547 L 146.74609 70.4375 L 145.75977 69.603516 z M 26.195312 73.333984 L 24.953125 73.6875 L 24.548828 74.261719 L 24.533203 74.304688 L 24.507812 74.373047 L 23.494141 77.367188 L 23.472656 77.4375 L 22.605469 80.494141 L 22.585938 80.566406 L 21.998047 83.117188 L 22.277344 84.376953 L 23.431641 84.955078 L 24.607422 84.419922 L 24.919922 83.791016 L 25.505859 81.259766 L 25.509766 81.240234 L 26.353516 78.275391 L 26.359375 78.255859 L 27.339844 75.363281 L 27.349609 75.335938 L 27.337891 75.332031 L 27.251953 74.074219 L 26.195312 73.333984 z M 149.74609 86.904297 L 148.82812 87.8125 L 148.75 88.509766 L 149.00977 90.560547 L 149.25391 93.759766 L 149.33789 97 L 149.25391 100.24023 L 149.00977 103.43555 L 148.71289 105.78125 L 149.11719 107.00781 L 150.32422 107.46484 L 151.43945 106.81641 L 151.68945 106.16016 L 151.99219 103.77539 L 152 103.69922 L 152.24805 100.42773 L 152.25195 100.35156 L 152.33594 97.037109 L 152.32617 97.013672 L 152.33594 96.962891 L 152.25195 93.648438 L 152.24805 93.572266 L 152 90.300781 L 151.99219 90.226562 L 151.72656 88.132812 L 151.0293 87.046875 L 149.74609 86.904297 z M 22.005859 90.871094 L 20.925781 91.576172 L 20.708984 92.244141 L 20.607422 93.572266 L 20.603516 93.648438 L 20.521484 96.962891 L 20.521484 97.037109 L 20.603516 100.35156 L 20.607422 100.42773 L 20.6875 101.46289 L 21.328125 102.58203 L 22.603516 102.78906 L 23.566406 101.92969 L 23.677734 101.23438 L 23.603516 100.24023 L 23.519531 97 L 23.603516 93.759766 L 23.701172 92.472656 L 23.234375 91.267578 L 22.005859 90.871094 z M 22.759766 108.89844 L 21.9375 109.89453 L 21.931641 110.5957 L 22.585938 113.43359 L 22.605469 113.50586 L 23.472656 116.5625 L 23.494141 116.63477 L 24.427734 119.39062 L 25.328125 120.31641 L 26.613281 120.20117 L 27.332031 119.12891 L 27.269531 118.42969 L 26.359375 115.74414 L 26.353516 115.72461 L 25.509766 112.75977 L 25.505859 112.74023 L 24.855469 109.92188 L 24.050781 108.91211 L 22.759766 108.89844 z M 148.4375 113.26953 L 147.23828 113.74414 L 146.89258 114.35547 L 146.51953 115.67188 L 146.51367 115.68945 L 145.52148 118.625 L 144.4082 121.45312 L 144.4043 121.46094 L 143.89258 122.5957 L 143.91797 123.88672 L 144.9375 124.67773 L 146.19336 124.38672 L 146.625 123.83203 L 147.14258 122.68945 L 147.16992 122.62109 L 148.32422 119.69531 L 148.34961 119.62695 L 149.36133 116.63477 L 149.38477 116.5625 L 149.77734 115.17578 L 149.5625 113.90234 L 148.4375 113.26953 z M 29.810547 125.66016 L 28.554688 125.96289 L 28 127.12891 L 28.166016 127.81055 L 28.458984 128.38477 L 28.494141 128.44922 L 30.044922 131.14648 L 30.082031 131.20703 L 31.757812 133.82031 L 31.796875 133.88086 L 33.037109 135.625 L 34.166016 136.25195 L 35.363281 135.77148 L 35.744141 134.53906 L 35.482422 133.88672 L 34.283203 132.20117 L 34.277344 132.19141 L 32.619141 129.60547 L 32.607422 129.58789 L 31.113281 126.98828 L 30.835938 126.44336 L 29.810547 125.66016 z M 141.5625 129.74609 L 140.27539 129.85352 L 139.76758 130.33984 L 138.58008 132.19141 L 138.57422 132.20117 L 136.86133 134.60938 L 136.84766 134.62695 L 134.95508 137.03516 L 134.94922 137.04297 L 134.60547 137.4375 L 134.26367 138.68164 L 135.01367 139.73047 L 136.30273 139.81055 L 136.87305 139.40039 L 137.26367 138.95117 L 137.30859 138.89648 L 139.2207 136.46289 L 139.26367 136.40625 L 141.05859 133.88086 L 141.09961 133.82031 L 142.29297 131.95898 L 142.45508 130.67773 L 141.5625 129.74609 z M 39.912109 140.1543 L 38.794922 140.80078 L 38.59375 142.07617 L 38.947266 142.68555 L 39.798828 143.57812 L 39.849609 143.62891 L 42.085938 145.76172 L 42.140625 145.81055 L 44.476562 147.83398 L 44.53125 147.88086 L 45.775391 148.85742 L 47.035156 149.14062 L 48.048828 148.3418 L 48.064453 147.05078 L 47.628906 146.49805 L 46.441406 145.56641 L 46.435547 145.56055 L 44.15625 143.58984 L 44.142578 143.57617 L 41.970703 141.50781 L 41.966797 141.50391 L 41.119141 140.61523 L 39.912109 140.1543 z M 129.13477 143.42969 L 128.50977 143.75195 L 126.43945 145.54492 L 124.0957 147.39062 L 124.07422 147.40625 L 121.59961 149.16602 L 121.57031 149.18555 L 121.58008 149.19922 L 120.91797 150.26172 L 121.3418 151.48047 L 122.55469 151.92188 L 123.21875 151.69141 L 123.25 151.67188 L 123.30859 151.63086 L 125.83398 149.83594 L 125.89258 149.79297 L 128.32422 147.88086 L 128.38086 147.83398 L 130.47461 146.01953 L 130.99219 144.83789 L 130.39844 143.69141 L 129.13477 143.42969 z M 53.605469 151.32422 L 52.716797 152.26172 L 52.886719 153.54102 L 53.396484 154.02539 L 54.980469 154.93555 L 55.042969 154.9707 L 57.820312 156.39258 L 57.886719 156.42383 L 60.740234 157.71289 L 60.808594 157.74219 L 61.666016 158.08008 L 62.953125 157.99219 L 63.695312 156.93555 L 63.341797 155.69336 L 62.765625 155.28906 L 61.935547 154.96289 L 59.136719 153.69531 L 59.123047 153.68945 L 56.425781 152.30469 L 56.412109 152.29883 L 54.892578 151.42383 L 53.605469 151.32422 z M 114.61914 153.41992 L 113.93555 153.58594 L 113.73438 153.68945 L 113.72266 153.69531 L 110.92188 154.96289 L 108.05273 156.09375 L 105.79688 156.85742 L 104.87109 157.75586 L 104.98633 159.04102 L 106.05859 159.76172 L 106.75781 159.69922 L 109.05469 158.92188 L 109.125 158.89648 L 112.04883 157.74219 L 112.11719 157.71289 L 114.9707 156.42383 L 115.03516 156.39258 L 115.30273 156.25586 L 116.08594 155.23047 L 115.7832 153.97461 L 114.61914 153.41992 z M 71.099609 158.01758 L 69.839844 158.29688 L 69.261719 159.45312 L 69.796875 160.62695 L 70.425781 160.94141 L 73.111328 161.56055 L 73.183594 161.57617 L 76.355469 162.14258 L 76.431641 162.1543 L 79.427734 162.53516 L 80.654297 162.13086 L 81.113281 160.92383 L 80.462891 159.80859 L 79.806641 159.55859 L 76.837891 159.18164 L 73.740234 158.62891 L 71.099609 158.01758 z "
       style="color:#000000;font-style:normal;font-variant:normal;font-weight:normal;font-stretch:normal;font-size:medium;line-height:normal;font-family:sans-serif;font-variant-ligatures:normal;font-variant-position:normal;font-variant-caps:normal;font-variant-numeric:normal;font-variant-alternates:normal;font-feature-settings:normal;text-indent:0;text-align:start;text-decoration:none;text-decoration-line:none;text-decoration-style:solid;text-decoration-color:#000000;letter-spacing:normal;word-spacing:normal;text-transform:none;writing-mode:lr-tb;direction:ltr;text-orientation:mixed;dominant-baseline:auto;baseline-shift:baseline;text-anchor:start;white-space:normal;shape-padding:0;clip-rule:nonzero;display:inline;overflow:visible;visibility:visible;opacity:1;isolation:auto;mix-blend-mode:normal;color-interpolation:sRGB;color-interpolation-filters:linearRGB;solid-color:#000000;solid-opacity:1;vector-effect:none;fill:#ffffff;fill-opacity:1;fill-rule:nonzero;stroke:none;stroke-width:3;stroke-linecap:round;stroke-linejoin:round;stroke-miterlimit:4;stroke-dasharray:none;stroke-dashoffset:0;stroke-opacity:1;paint-order:stroke fill markers;color-rendering:auto;image-rendering:auto;shape-rendering:auto;text-rendering:auto;enable-background:accumulate" />
    <path
       id="path9500"
       d="m 73.45142,394.53777 a 1.376242,1.376242 0 0 1 0.775851,0.27235 l 80.163459,59.83187 15.46864,-19.72953 a 1.376242,1.376242 0 0 1 1.07508,-0.52678 1.376242,1.376242 0 0 1 0.86723,0.30101 l 20.85121,16.68169 a 1.376242,1.376242 0 0 1 0.24727,1.89213 l -14.34518,19.41777 23.56042,17.58475 a 1.376242,1.376242 0 0 1 -0.79914,2.47807 l -128.35042,2.3168 a 1.376242,1.376242 0 0 1 -1.401181,-1.38327 l 0.464073,-97.76791 a 1.376242,1.376242 0 0 1 1.422688,-1.36895 z m 1.316973,4.10861 -0.444361,93.63423 122.919458,-2.21826 z m 96.397197,39.0577 -14.26812,18.19934 19.56111,14.98306 13.44031,-18.19754 z"
       style="color:#000000;font-style:normal;font-variant:normal;font-weight:normal;font-stretch:normal;font-size:medium;line-height:normal;font-family:sans-serif;font-variant-ligatures:normal;font-variant-position:normal;font-variant-caps:normal;font-variant-numeric:normal;font-variant-alternates:normal;font-feature-settings:normal;text-indent:0;text-align:start;text-decoration:none;text-decoration-line:none;text-decoration-style:solid;text-decoration-color:#000000;letter-spacing:normal;word-spacing:normal;text-transform:none;writing-mode:lr-tb;direction:ltr;text-orientation:mixed;dominant-baseline:auto;baseline-shift:baseline;text-anchor:start;white-space:normal;shape-padding:0;clip-rule:nonzero;display:inline;overflow:visible;visibility:visible;opacity:1;isolation:auto;mix-blend-mode:normal;color-interpolation:sRGB;color-interpolation-filters:linearRGB;solid-color:#000000;solid-opacity:1;vector-effect:none;fill:#fcfdfe;fill-opacity:1;fill-rule:nonzero;stroke:none;stroke-width:2.75220871;stroke-linecap:round;stroke-linejoin:round;stroke-miterlimit:4;stroke-dasharray:none;stroke-dashoffset:0;stroke-opacity:1;color-rendering:auto;image-rendering:auto;shape-rendering:auto;text-rendering:auto;enable-background:accumulate" />
  </g>
</svg>
