<?xml version="1.0" encoding="UTF-8" standalone="no"?>
<!-- Created with Inkscape (http://www.inkscape.org/) -->

<svg
   xmlns:dc="http://purl.org/dc/elements/1.1/"
   xmlns:cc="http://creativecommons.org/ns#"
   xmlns:rdf="http://www.w3.org/1999/02/22-rdf-syntax-ns#"
   xmlns:svg="http://www.w3.org/2000/svg"
   xmlns="http://www.w3.org/2000/svg"
   xmlns:sodipodi="http://sodipodi.sourceforge.net/DTD/sodipodi-0.dtd"
   xmlns:inkscape="http://www.inkscape.org/namespaces/inkscape"
   width="512"
   height="256"
   viewBox="0 0 512 256.00001"
   version="1.1"
   id="svg8"
   inkscape:version="0.92.3 (2405546, 2018-03-11)"
   sodipodi:docname="logo.svg">
  <defs
     id="defs2" />
  <sodipodi:namedview
     id="base"
     pagecolor="#ffffff"
     bordercolor="#666666"
     borderopacity="1.0"
     inkscape:pageopacity="0.0"
     inkscape:pageshadow="2"
     inkscape:zoom="0.98994949"
     inkscape:cx="263.91163"
     inkscape:cy="187.37645"
     inkscape:document-units="px"
     inkscape:current-layer="g4883"
     showgrid="false"
     units="px"
     inkscape:window-width="1366"
     inkscape:window-height="742"
     inkscape:window-x="0"
     inkscape:window-y="0"
     inkscape:window-maximized="1" />
  <metadata
     id="metadata5">
    <rdf:RDF>
      <cc:Work
         rdf:about="">
        <dc:format>image/svg+xml</dc:format>
        <dc:type
           rdf:resource="http://purl.org/dc/dcmitype/StillImage" />
        <dc:title></dc:title>
      </cc:Work>
    </rdf:RDF>
  </metadata>
  <g
     inkscape:label="Camada 1"
     inkscape:groupmode="layer"
     id="layer1"
     transform="translate(0,-866.51965)">
    <g
       id="g4883"
       transform="matrix(6.6096899,0,0,6.6096899,-218.30478,-29.220252)">
      <path
         style="font-style:normal;font-variant:normal;font-weight:500;font-stretch:normal;font-size:medium;line-height:11.80000019;font-family:Montserrat;-inkscape-font-specification:'Montserrat Medium';letter-spacing:-0.5291667px;word-spacing:0px;fill:#000000;fill-opacity:1;stroke:none;stroke-width:0.26458332"
         d="m 70.161607,145.26297 c -0.197554,0 -0.363072,0.067 -0.497126,0.20102 -0.127,0.127 -0.190688,0.28216 -0.190688,0.4656 0,0.18344 0.06369,0.33861 0.190688,0.46561 0.134054,0.127 0.299572,0.19068 0.497126,0.19068 0.197556,0 0.359793,-0.0637 0.486793,-0.19068 0.134054,-0.13406 0.20102,-0.2963 0.20102,-0.4868 0,-0.18344 -0.06697,-0.33481 -0.20102,-0.45475 -0.127,-0.127 -0.289237,-0.19068 -0.486793,-0.19068 z m 31.590323,0.15864 v 3.09025 c -0.22578,-0.29633 -0.5078,-0.51845 -0.84646,-0.66662 -0.33867,-0.15522 -0.7094,-0.23255 -1.111562,-0.23255 -0.543277,0 -1.029986,0.11979 -1.460376,0.35967 -0.430389,0.23989 -0.769014,0.57471 -1.01596,1.00511 -0.239887,0.43038 -0.359667,0.92797 -0.359667,1.49241 0,0.56444 0.11978,1.06531 0.359667,1.50276 0.246946,0.43038 0.585571,0.76572 1.01596,1.00562 0.43039,0.23989 0.917099,0.35966 1.460376,0.35966 0.416282,0 0.797362,-0.0811 1.143082,-0.24339 0.34572,-0.16227 0.63153,-0.39856 0.85731,-0.709 v 0.88883 h 0.97359 v -7.85275 z m -58.185081,0.36019 c -0.747889,0 -1.42186,0.16551 -2.021583,0.49712 -0.59972,0.32456 -1.072277,0.77641 -1.418,1.35496 -0.338667,0.57856 -0.507979,1.22371 -0.507979,1.93632 0,0.68439 0.15516,1.30883 0.465603,1.87327 0.3175,0.55739 0.754677,1.00543 1.312067,1.3441 0.564443,0.33867 1.195956,0.52594 1.894456,0.56121 0.522113,0.53622 0.984313,0.91351 1.38648,1.13223 0.409223,0.22578 0.846397,0.33848 1.312063,0.33848 0.36689,0 0.709311,-0.074 1.026811,-0.22221 0.3175,-0.14817 0.596236,-0.36321 0.836126,-0.64544 l -0.497644,-0.60306 c -0.381,0.42333 -0.832329,0.6351 -1.354439,0.6351 -0.23989,0 -0.476168,-0.0604 -0.709002,-0.18035 -0.225777,-0.11289 -0.462055,-0.29963 -0.709001,-0.56069 0.5715,-0.13405 1.075642,-0.37412 1.513086,-0.71985 0.4445,-0.34572 0.786924,-0.77254 1.026811,-1.28054 0.246946,-0.508 0.37052,-1.06547 0.37052,-1.67225 0,-0.71967 -0.169312,-1.36482 -0.507979,-1.93632 -0.338667,-0.57855 -0.807945,-1.0304 -1.407665,-1.35496 -0.599724,-0.33161 -1.269897,-0.49712 -2.010731,-0.49712 z m 22.382096,0.65577 v 1.22783 h -0.952396 v 0.83613 h 0.952396 v 3.07991 c 0,0.56444 0.15516,0.99834 0.465604,1.30173 0.310446,0.30339 0.748138,0.45475 1.312582,0.45475 0.232833,0 0.458239,-0.0316 0.676963,-0.0951 0.21872,-0.0705 0.402185,-0.16962 0.550351,-0.29662 l -0.317291,-0.73019 c -0.218723,0.17639 -0.483306,0.26458 -0.79375,0.26458 -0.282223,0 -0.50107,-0.0811 -0.656291,-0.24339 -0.148166,-0.16228 -0.22221,-0.39476 -0.22221,-0.69815 v -3.03754 h 1.608688 v -0.83613 h -1.608688 v -1.22783 z m -22.382096,0.28577 c 0.536223,0 1.022932,0.12358 1.460376,0.37052 0.437444,0.24695 0.779349,0.58937 1.026295,1.02681 0.254,0.43039 0.38137,0.91331 0.38137,1.44953 0,0.53622 -0.12737,1.02345 -0.38137,1.46089 -0.246946,0.43039 -0.588851,0.76902 -1.026295,1.01596 -0.437444,0.24695 -0.924153,0.37 -1.460376,0.37 -0.543277,0 -1.037579,-0.12305 -1.482079,-0.37 -0.437446,-0.24694 -0.783145,-0.58557 -1.037148,-1.01596 -0.246944,-0.43744 -0.370001,-0.92467 -0.370001,-1.46089 0,-0.53622 0.123057,-1.01914 0.370001,-1.44953 0.254003,-0.43744 0.599702,-0.77986 1.037148,-1.02681 0.4445,-0.24694 0.938802,-0.37052 1.482079,-0.37052 z m 13.806392,0.88935 c -0.536223,0 -1.019135,0.12307 -1.449525,0.37001 -0.423333,0.23989 -0.758676,0.57851 -1.005623,1.01596 -0.239887,0.43744 -0.359666,0.92794 -0.359666,1.47122 0,0.55034 0.123057,1.04413 0.370004,1.48157 0.254,0.43744 0.610573,0.77986 1.069184,1.02681 0.458612,0.23989 0.983982,0.35966 1.576649,0.35966 0.465667,0 0.885925,-0.0773 1.259869,-0.23254 0.381,-0.15523 0.698397,-0.38114 0.952397,-0.67748 l -0.561205,-0.65629 c -0.409223,0.45156 -0.948746,0.67748 -1.619023,0.67748 -0.550333,0 -1.012534,-0.14808 -1.386477,-0.44442 -0.36689,-0.30338 -0.581941,-0.7019 -0.645441,-1.19579 h 4.550627 c 0.0141,-0.127 0.02119,-0.22935 0.02119,-0.30696 0,-0.56444 -0.119779,-1.06582 -0.359669,-1.50326 -0.232833,-0.43745 -0.561102,-0.77607 -0.984435,-1.01596 -0.416277,-0.24694 -0.89263,-0.37001 -1.428853,-0.37001 z m 5.453931,0 c -0.71261,0 -1.280438,0.15517 -1.703771,0.46561 -0.423334,0.30339 -0.635104,0.70898 -0.635104,1.21698 0,0.3951 0.102347,0.70215 0.306957,0.92087 0.204613,0.21872 0.447966,0.37389 0.730189,0.46561 0.289277,0.0917 0.660003,0.17284 1.111559,0.24339 0.331611,0.0564 0.585322,0.10925 0.761712,0.15865 0.183444,0.0423 0.335325,0.11309 0.455269,0.21187 0.119943,0.0988 0.179834,0.23271 0.179834,0.40204 0,0.508 -0.44477,0.76172 -1.33377,0.76172 -0.359833,0 -0.715891,-0.0528 -1.068668,-0.15865 -0.352776,-0.10583 -0.652743,-0.24684 -0.899686,-0.42323 l -0.42323,0.80408 c 0.23989,0.1905 0.571439,0.34946 0.994772,0.47646 0.423334,0.11995 0.864304,0.17983 1.322917,0.17983 0.747887,0 1.336945,-0.14808 1.767332,-0.44441 0.437446,-0.30339 0.656291,-0.70898 0.656291,-1.21698 0,-0.381 -0.09855,-0.67717 -0.296106,-0.88884 -0.197554,-0.21166 -0.437631,-0.36026 -0.719852,-0.44493 -0.275166,-0.0917 -0.638299,-0.17613 -1.089856,-0.25373 -0.338666,-0.0635 -0.60325,-0.1201 -0.79375,-0.1695 -0.183443,-0.0494 -0.339121,-0.12671 -0.466121,-0.23255 -0.127,-0.10583 -0.19017,-0.25063 -0.19017,-0.43408 0,-0.23283 0.112702,-0.41958 0.338482,-0.56069 0.225777,-0.14111 0.554045,-0.21187 0.984435,-0.21187 0.62089,0 1.160412,0.14808 1.619023,0.44442 l 0.43408,-0.80409 c -0.239887,-0.15522 -0.546928,-0.2788 -0.920871,-0.37052 -0.373947,-0.0917 -0.747954,-0.13746 -1.121897,-0.13746 z m 11.65562,0 c -0.557389,0 -1.058251,0.12307 -1.502751,0.37001 -0.4445,0.23989 -0.793999,0.57851 -1.047999,1.01596 -0.246943,0.43039 -0.370004,0.92089 -0.370004,1.47122 0,0.55034 0.123061,1.04413 0.370004,1.48157 0.254,0.43039 0.603499,0.76901 1.047999,1.01595 0.4445,0.24695 0.945362,0.37052 1.502751,0.37052 0.557387,0 1.054971,-0.12357 1.492414,-0.37052 0.4445,-0.24694 0.790202,-0.58556 1.037146,-1.01595 0.254,-0.43744 0.380857,-0.93123 0.380857,-1.48157 0,-0.55033 -0.126857,-1.04083 -0.380857,-1.47122 -0.246944,-0.43745 -0.592646,-0.77607 -1.037146,-1.01596 -0.437443,-0.24694 -0.935027,-0.37001 -1.492414,-0.37001 z m 6.781496,0 c -0.444497,0 -0.843013,0.0773 -1.195792,0.23255 -0.345721,0.15522 -0.621178,0.37734 -0.825789,0.66662 v -0.84646 h -0.973584 v 5.60896 h 1.01596 v -2.88922 c 0,-0.59973 0.158956,-1.05813 0.476456,-1.37563 0.3175,-0.32456 0.751396,-0.4868 1.301729,-0.4868 0.486834,0 0.860841,0.13773 1.121894,0.4129 0.261057,0.27517 0.391708,0.68404 0.391708,1.22731 v 3.11144 h 1.01596 v -3.22771 c 0,-0.79727 -0.21177,-1.40048 -0.635103,-1.80971 -0.416279,-0.41627 -0.980826,-0.62425 -1.693439,-0.62425 z m 5.732468,0 c -0.451557,0 -0.878375,0.0632 -1.280541,0.19017 -0.402167,0.11994 -0.747869,0.29634 -1.037146,0.52917 l 0.423228,0.76223 c 0.218723,-0.18344 0.486587,-0.32825 0.804087,-0.43409 0.3175,-0.11289 0.642488,-0.16949 0.974101,-0.16949 0.493887,0 0.867378,0.11649 1.121378,0.34933 0.254,0.23283 0.381373,0.56818 0.381373,1.00562 v 0.20102 h -1.608688 c -0.783167,0 -1.354791,0.15188 -1.714624,0.45527 -0.359834,0.29634 -0.54002,0.69106 -0.54002,1.18494 0,0.49389 0.187261,0.89292 0.561208,1.19631 0.381,0.30339 0.885658,0.45475 1.513601,0.45475 0.43039,0 0.800598,-0.067 1.111044,-0.20102 0.3175,-0.14111 0.560853,-0.34201 0.730187,-0.60306 v 0.74052 h 0.96325 v -3.38635 c 0,-0.75494 -0.208492,-1.32329 -0.624769,-1.70429 -0.409223,-0.381 -1.001559,-0.57103 -1.777669,-0.57103 z m 6.748425,0 c -0.4445,0 -0.843015,0.0773 -1.195792,0.23255 -0.345723,0.15522 -0.621178,0.37734 -0.825789,0.66662 v -0.84646 h -0.973584 v 5.60896 h 1.015957 v -2.88922 c 0,-0.59973 0.158957,-1.05813 0.476457,-1.37563 0.3175,-0.32456 0.751395,-0.4868 1.301729,-0.4868 0.486833,0 0.86084,0.13773 1.121896,0.4129 0.261054,0.27517 0.391708,0.68404 0.391708,1.22731 v 3.11144 h 1.015958 v -3.22771 c 0,-0.79727 -0.21177,-1.40048 -0.635103,-1.80971 -0.416277,-0.41627 -0.980827,-0.62425 -1.693437,-0.62425 z m 12.818339,0 c -0.55739,0 -1.05825,0.12307 -1.50275,0.37001 -0.4445,0.23989 -0.794,0.57851 -1.048,1.01596 -0.24695,0.43039 -0.37,0.92089 -0.37,1.47122 0,0.55034 0.12305,1.04413 0.37,1.48157 0.254,0.43039 0.6035,0.76901 1.048,1.01595 0.4445,0.24695 0.94536,0.37052 1.50275,0.37052 0.55739,0 1.05497,-0.12357 1.49242,-0.37052 0.4445,-0.24694 0.79019,-0.58556 1.03714,-1.01595 0.254,-0.43744 0.38086,-0.93123 0.38086,-1.48157 0,-0.55033 -0.12686,-1.04083 -0.38086,-1.47122 -0.24695,-0.43745 -0.59264,-0.77607 -1.03714,-1.01596 -0.43745,-0.24694 -0.93503,-0.37001 -1.49242,-0.37001 z m -58.183011,0.0527 v 3.22771 c 0,0.80434 0.215048,1.41462 0.645438,1.8309 0.43039,0.40922 1.019445,0.61391 1.767335,0.61391 0.39511,0 0.758761,-0.0773 1.090371,-0.23254 0.338667,-0.16228 0.610328,-0.3882 0.814938,-0.67748 v 0.84646 h 0.962732 v -5.60896 h -1.015958 v 2.89957 c 0,0.59266 -0.15516,1.05159 -0.465606,1.37614 -0.310443,0.32455 -0.733983,0.48679 -1.270206,0.48679 -0.486834,0 -0.860322,-0.13773 -1.121379,-0.41289 -0.261056,-0.28222 -0.391707,-0.69489 -0.391707,-1.23817 v -3.11144 z m 21.273119,0 v 5.60896 h 1.01596 v -5.60896 z m -12.280387,0.80409 c 0.486834,0 0.892943,0.15188 1.217497,0.45527 0.33161,0.29633 0.52543,0.6807 0.581876,1.15342 h -3.59823 c 0.05645,-0.47978 0.246986,-0.86742 0.571543,-1.16376 0.33161,-0.29633 0.740481,-0.44493 1.227314,-0.44493 z m 17.109551,0.032 c 0.359834,0 0.681025,0.0811 0.963248,0.24339 0.289277,0.16228 0.515199,0.39528 0.677479,0.69867 0.162276,0.29633 0.243395,0.63823 0.243395,1.02629 0,0.38806 -0.08112,0.73376 -0.243395,1.03715 -0.16228,0.29633 -0.388202,0.52933 -0.677479,0.69866 -0.282223,0.16229 -0.603414,0.2434 -0.963248,0.2434 -0.359833,0 -0.684307,-0.0811 -0.973584,-0.2434 -0.282223,-0.16933 -0.508146,-0.40233 -0.677479,-0.69866 -0.162277,-0.30339 -0.243396,-0.64909 -0.243396,-1.03715 0,-0.38806 0.08112,-0.72996 0.243396,-1.02629 0.169333,-0.30339 0.395256,-0.53639 0.677479,-0.69867 0.289277,-0.16227 0.613751,-0.24339 0.973584,-0.24339 z m 25.395865,0 c 0.352773,0 0.673963,0.0811 0.963253,0.24339 0.28928,0.16228 0.5152,0.39528 0.67747,0.69867 0.16228,0.29633 0.2434,0.63823 0.2434,1.02629 0,0.38806 -0.0811,0.73376 -0.2434,1.03715 -0.16227,0.29633 -0.38819,0.52933 -0.67747,0.69866 -0.28929,0.16229 -0.61048,0.2434 -0.963253,0.2434 -0.359834,0 -0.684305,-0.0811 -0.973585,-0.2434 -0.28222,-0.16933 -0.508143,-0.40233 -0.677476,-0.69866 -0.16228,-0.30339 -0.243398,-0.64909 -0.243398,-1.03715 0,-0.38806 0.08112,-0.72996 0.243398,-1.02629 0.169333,-0.30339 0.395256,-0.53639 0.677476,-0.69867 0.28928,-0.16227 0.613751,-0.24339 0.973585,-0.24339 z m 6.684863,0 c 0.35983,0 0.68102,0.0811 0.96325,0.24339 0.28927,0.16228 0.5152,0.39528 0.67748,0.69867 0.16228,0.29633 0.24339,0.63823 0.24339,1.02629 0,0.38806 -0.0811,0.73376 -0.24339,1.03715 -0.16228,0.29633 -0.38821,0.52933 -0.67748,0.69866 -0.28223,0.16229 -0.60342,0.2434 -0.96325,0.2434 -0.35983,0 -0.68431,-0.0811 -0.97358,-0.2434 -0.28223,-0.16933 -0.50815,-0.40233 -0.67748,-0.69866 -0.16228,-0.30339 -0.2434,-0.64909 -0.2434,-1.03715 0,-0.38806 0.0811,-0.72996 0.2434,-1.02629 0.16933,-0.30339 0.39525,-0.53639 0.67748,-0.69867 0.28927,-0.16227 0.61375,-0.24339 0.97358,-0.24339 z m -19.746599,2.27531 h 1.566315 v 0.78342 c -0.127003,0.3175 -0.331695,0.56413 -0.613918,0.74052 -0.282221,0.16933 -0.617567,0.25425 -1.005623,0.25425 -0.388054,0 -0.691301,-0.0811 -0.910021,-0.2434 -0.218723,-0.16228 -0.328147,-0.38492 -0.328147,-0.66714 0,-0.57856 0.430617,-0.86765 1.291394,-0.86765 z"
         id="logo-title"
         inkscape:connector-curvature="0"
         inkscape:label="#path4848" />
      <path
         sodipodi:nodetypes="cccccccccccccc"
         inkscape:connector-curvature="0"
         id="logo-black-border"
         d="m 36.023438,141.20508 c -1.104524,1.1e-4 -1.99989,0.89548 -2,2 v 23.18554 c 1.1e-4,1.10452 0.895476,1.99989 2,2 h 22.783203 c 1.104524,-1.1e-4 1.99989,-0.89548 2,-2 v -8.28484 c 0.03825,-2.70464 -4.03825,-2.70464 -4,0 v 6.28484 H 38.023438 v -19.18554 h 21.519531 c 2.704645,0.0382 2.704645,-4.03825 0,-4 z"
         style="color:#000000;font-style:normal;font-variant:normal;font-weight:normal;font-stretch:normal;font-size:medium;line-height:normal;font-family:sans-serif;font-variant-ligatures:normal;font-variant-position:normal;font-variant-caps:normal;font-variant-numeric:normal;font-variant-alternates:normal;font-feature-settings:normal;text-indent:0;text-align:start;text-decoration:none;text-decoration-line:none;text-decoration-style:solid;text-decoration-color:#000000;letter-spacing:normal;word-spacing:normal;text-transform:none;writing-mode:lr-tb;direction:ltr;text-orientation:mixed;dominant-baseline:auto;baseline-shift:baseline;text-anchor:start;white-space:normal;shape-padding:0;clip-rule:nonzero;display:inline;overflow:visible;visibility:visible;opacity:1;isolation:auto;mix-blend-mode:normal;color-interpolation:sRGB;color-interpolation-filters:linearRGB;solid-color:#000000;solid-opacity:1;vector-effect:none;fill:#000000;fill-opacity:1;fill-rule:nonzero;stroke:none;stroke-width:4;stroke-linecap:round;stroke-linejoin:round;stroke-miterlimit:4;stroke-dasharray:none;stroke-dashoffset:0;stroke-opacity:1;color-rendering:auto;image-rendering:auto;shape-rendering:auto;text-rendering:auto;enable-background:accumulate"
         inkscape:label="#path4764" />
      <path
         sodipodi:nodetypes="cccsscscccccccccsccccsccccc"
         inkscape:connector-curvature="0"
         transform="scale(0.26458333)"
         id="rect4801"
         d="m 149.10742,579.66211 v 27.80664 2.01953 0.31055 c 0,3.28779 2.64775,5.93555 5.93555,5.93555 h 48.91017 c 3.28779,-10e-6 5.93359,-2.64776 5.93359,-5.93555 v -0.31055 -2.01953 -23.76953 c -0.92585,-1.12341 -3.14972,-1.09086 -4.32422,-2.74247 h -2.74806 v 2.99247 h -3.63867 v -3.20117 c -0.77333,1.09334 -1.80008,1.9472 -3.08008,2.56054 -1.25333,0.58674 -2.62776,0.87891 -4.12109,0.87891 -2.82667,0 -5.05302,-0.77166 -6.67969,-2.31836 -0.0103,-0.01 -0.0191,-0.0213 -0.0293,-0.0312 -1.42345,2.42131 -4.40429,4.66992 -4.40429,4.66992 -0.90667,1.0667 -1.96016,1.8814 -3.16016,2.44141 -1.2,0.56012 -2.49419,0.83984 -3.88086,0.83984 -1.75999,0 -3.41231,-0.42791 -4.95898,-1.28125 -1.52,-0.82666 -3.2669,-2.25264 -5.24024,-4.27929 -2.64,-0.13331 -5.02682,-0.84109 -7.16015,-2.1211 -1.13962,-0.69241 -2.14161,-1.51097 -3.01563,-2.44531 z"
         style="opacity:1;fill:#04d361;fill-opacity:1;fill-rule:nonzero;stroke:none;stroke-width:18.05166626;stroke-linecap:round;stroke-linejoin:round;stroke-miterlimit:4;stroke-dasharray:none;stroke-dashoffset:0;stroke-opacity:1;paint-order:stroke fill markers" />
      <path
         inkscape:connector-curvature="0"
         id="path4873"
         d="m 65.484375,156.11929 a 2.0002,2.0002 0 1 0 0,4 h 41.671875 a 2.0002,2.0002 0 1 0 0,-4 z"
         style="color:#000000;font-style:normal;font-variant:normal;font-weight:normal;font-stretch:normal;font-size:medium;line-height:normal;font-family:sans-serif;font-variant-ligatures:normal;font-variant-position:normal;font-variant-caps:normal;font-variant-numeric:normal;font-variant-alternates:normal;font-feature-settings:normal;text-indent:0;text-align:start;text-decoration:none;text-decoration-line:none;text-decoration-style:solid;text-decoration-color:#000000;letter-spacing:normal;word-spacing:normal;text-transform:none;writing-mode:lr-tb;direction:ltr;text-orientation:mixed;dominant-baseline:auto;baseline-shift:baseline;text-anchor:start;white-space:normal;shape-padding:0;clip-rule:nonzero;display:inline;overflow:visible;visibility:visible;opacity:1;isolation:auto;mix-blend-mode:normal;color-interpolation:sRGB;color-interpolation-filters:linearRGB;solid-color:#000000;solid-opacity:1;vector-effect:none;fill:#04d361;fill-opacity:1;fill-rule:nonzero;stroke:none;stroke-width:4;stroke-linecap:round;stroke-linejoin:miter;stroke-miterlimit:4;stroke-dasharray:none;stroke-dashoffset:0;stroke-opacity:1;color-rendering:auto;image-rendering:auto;shape-rendering:auto;text-rendering:auto;enable-background:accumulate" />
    </g>
  </g>
</svg>
